<?xml version="1.0" encoding="utf-8"?>
<!-- Generator: Adobe Illustrator 22.1.0, SVG Export Plug-In . SVG Version: 6.00 Build 0)  -->
<svg version="1.1" id="Capa_1" xmlns="http://www.w3.org/2000/svg" xmlns:xlink="http://www.w3.org/1999/xlink" x="0px" y="0px"
	 viewBox="0 0 60.5 60.5" style="enable-background:new 0 0 60.5 60.5;" xml:space="preserve">
<style type="text/css">
	.st0{fill:#F56C6D;stroke:#F56C6D;stroke-width:0.5;stroke-miterlimit:10;}
</style>
<g>
	<path class="st0" d="M30.2,26.2c3.9,0,7-3.1,7-7s-3.1-7-7-7s-7,3.1-7,7S26.4,26.2,30.2,26.2z M30.2,14.2c2.8,0,5,2.2,5,5
		s-2.2,5-5,5s-5-2.2-5-5S27.5,14.2,30.2,14.2z"/>
	<path class="st0" d="M30,55l15.3-22.2c5.8-7.7,4.9-20.3-1.8-27C40,2.2,35.2,0.2,30,0.2s-9.9,2-13.6,5.6c-6.7,6.7-7.5,19.3-1.8,27
		L30,55z M18,7.2c3.2-3.2,7.6-5,12.1-5s8.9,1.8,12.2,5c6,6,6.8,17.4,1.6,24.4L30,51.5L16.4,31.6C11.1,24.8,11.9,13.4,18,7.2z"/>
	<path class="st0" d="M42.3,43.2c-0.5-0.1-1,0.3-1.1,0.9s0.3,1,0.9,1.1c10.5,1.2,16.1,4.6,16.1,6.5c0,2.7-10.7,6.5-28,6.5
		s-28-3.8-28-6.5c0-1.9,5.6-5.3,16.1-6.5c0.5-0.1,0.9-0.6,0.9-1.1c-0.1-0.5-0.6-0.9-1.1-0.9C7.7,44.5,0.2,48,0.2,51.8
		c0,4.2,10.3,8.5,30,8.5s30-4.3,30-8.5C60.2,48,52.8,44.5,42.3,43.2z"/>
</g>
</svg>
