<?xml version="1.0" encoding="utf-8"?>
<!-- Generator: Adobe Illustrator 22.1.0, SVG Export Plug-In . SVG Version: 6.00 Build 0)  -->
<svg version="1.1" id="Layer_1" xmlns="http://www.w3.org/2000/svg" xmlns:xlink="http://www.w3.org/1999/xlink" x="0px" y="0px"
	 viewBox="0 0 520 437.5" style="enable-background:new 0 0 520 437.5;" xml:space="preserve">
<style type="text/css">
	.st0{fill:#F56C6D;stroke:#F1F3F6;stroke-width:8;stroke-miterlimit:10;}
</style>
<g>
	<g>
		<path class="st0" d="M508.5,284.2l-67.4-67.4c3.4-38.8-2.9-68.4-20.1-88.7c-17-20.1-42.4-29.9-77.5-29.9c-18.4,0-37,2.6-53.3,4.9
			c-4.1,0.6-7.9,1.1-11.8,1.6c5.8-24.1,17.6-54.7,41.8-78.9c5-5,5-13.1,0-18.1s-13.1-5-18.1,0c-30.8,30.8-44.3,69.6-50.2,98.1
			c-6.6-0.6-14-1.5-22.2-2.6c-16.3-2.3-34.8-4.9-53.3-4.9c-35.1,0-60.4,9.8-77.5,29.9c-17.2,20.3-23.4,49.9-20.1,88.7l-67.4,67.4
			c-10,10-10,26.2,0,36.2l54.3,54.3c10,10,26.2,10,36.2,0l11.3-11.3c16.8,46.5,46.4,70,88.4,70c13.3,0,26-2.3,37.2-4.2
			c8.1-1.4,15.7-2.8,21.1-2.8c5.7,0,13.6,1.4,21.9,2.9c11.1,2,23.7,4.2,36.9,4.2c41.7,0,71.2-23.6,87.9-70l11.3,11.3
			c10,10,26.2,10,36.2,0l54.3-54.3C518.5,310.4,518.5,294.2,508.5,284.2z M176.4,123.8c30.3,0,63.1,8.2,83.6,8.2s53.2-8.2,83.6-8.2
			c33.9,0,64.7,10.3,71.8,53.6H104.6C111.8,134.1,142.6,123.8,176.4,123.8z M83.9,356.6l-54.3-54.3l18.1-18.1l9.1,9.1
			c5,5,13.1,5,18.1,0c5-5,5-13.1,0-18.1l-9.1-9.1l17.3-17.3c5.7,31.1,11.7,51.7,17.1,69.5c1.7,5.8,3.3,11.4,4.9,17.1L83.9,356.6z
			 M388,336.8c-14.6,58.5-41.5,71.1-69.2,71.1c-20.8,0-42-7.1-58.8-7.1c-16.3,0-37.4,7.1-58.3,7.1c-27.8,0-55.1-12.5-69.7-71.1
			c-2.7-10.7-5.7-20.5-9-31.3h273.9C393.6,316.6,390.5,326.7,388,336.8z M404,279.9H115.9c-3.2-12.5-6.4-27-9.5-45.5
			c-1.9-11.6-3-22-3.3-31.3h41.7v12.8c0,7.1,5.7,12.8,12.8,12.8s12.8-5.7,12.8-12.8V203h76.8v25.6c0,7.1,5.7,12.8,12.8,12.8
			c7.1,0,12.8-5.7,12.8-12.8V203h76.8v12.8c0,7.1,5.7,12.8,12.8,12.8s12.8-5.7,12.8-12.8V203h41.7c-0.3,9.4-1.3,19.8-3.3,31.4
			C410.7,252,407.3,266.8,404,279.9z M436.1,356.6l-21.2-21.2c1.6-5.7,3.1-11.3,4.9-17.4c5.3-17.9,11.7-40.2,17.1-69.3l17.3,17.3
			l-9.1,9.1c-5,5-5,13.1,0,18.1c5,5,13.1,5,18.1,0l9.1-9.1l18.1,18.1L436.1,356.6z"/>
	</g>
</g>
</svg>
