<?xml version="1.0" encoding="utf-8"?>
<!-- Generator: Adobe Illustrator 22.1.0, SVG Export Plug-In . SVG Version: 6.00 Build 0)  -->
<svg version="1.1" id="Layer_1_1_" xmlns="http://www.w3.org/2000/svg" xmlns:xlink="http://www.w3.org/1999/xlink" x="0px" y="0px"
	 viewBox="0 0 518 518" style="enable-background:new 0 0 518 518;" xml:space="preserve">
<style type="text/css">
	.st0{fill:#F1F3F6;}
	.st1{fill:#212529;stroke:#F1F3F6;stroke-width:12;stroke-miterlimit:10;}
</style>
<rect class="st0" width="518" height="518"/>
<g>
	<g>
		<g>
			<path class="st1" d="M405.7,247.8c-27.9-64.9-54.3-126.2-7.1-226.5c3-6.4,0.3-14-6.1-17s-14-0.2-17,6.1
				c-52.1,110.7-22.2,180.2,6.8,247.5c1.2,2.9,2.4,5.7,3.7,8.6c-21.9,16.9-68.8,30.9-126.9,30.9c-58.1,0-104.9-14.1-126.8-31
				c1.2-2.9,2.4-5.7,3.7-8.6c28.9-67.3,58.8-136.8,6.8-247.5c-3-6.4-10.6-9.2-17-6.1c-6.4,3-9.1,10.6-6.1,17
				c47.2,100.2,20.8,161.6-7.1,226.5C82,318.2,50.7,391,120,508.7c2.4,4.1,6.7,6.3,11.1,6.3c2.2,0,4.4-0.6,6.5-1.8
				c6.1-3.6,8.1-11.4,4.5-17.5c-39.3-66.8-43.2-116.8-33.4-161.4c73.9,20.7,127.2,92.8,137.6,107.8v60.1c0,7.1,5.7,12.8,12.8,12.8
				s12.8-5.7,12.8-12.8v-60.1c10.8-15.6,63.8-87.3,137.6-107.9c9.7,44.7,5.9,94.6-33.4,161.5c-3.6,6.1-1.6,13.9,4.5,17.5
				c2,1.2,4.3,1.8,6.5,1.8c4.4,0,8.7-2.3,11-6.3C467.3,391,436,318.2,405.7,247.8z M259,416.2c-21.3-28.1-73-86.9-143.6-106.6
				c2.1-6.3,4.4-12.6,6.8-18.8C151.7,310.5,200.8,323,259,323c58.1,0,107.3-12.4,136.9-32.1c2.4,6.2,4.7,12.4,6.7,18.7
				C332,329.3,280.3,388.1,259,416.2z"/>
		</g>
	</g>
	<g>
		<g>
			
				<ellipse transform="matrix(0.1602 -0.9871 0.9871 0.1602 -12.8888 451.66)" class="st1" cx="259" cy="233.4" rx="12.8" ry="12.8"/>
		</g>
	</g>
	<g>
		<g>
			<path class="st1" d="M114.4,147.6L76,109.2c-5-5-13.1-5-18.1,0c-5,5-5,13.1,0,18.1l16.5,16.5H15.8c-7.1,0-12.8,5.7-12.8,12.8
				s5.7,12.8,12.8,12.8h58.7L57.9,186c-5,5-5,13.1,0,18.1c2.5,2.5,5.8,3.7,9.1,3.7c3.3,0,6.6-1.2,9.1-3.7l38.4-38.4
				C119.4,160.7,119.4,152.6,114.4,147.6z"/>
		</g>
	</g>
	<g>
		<g>
			<path class="st1" d="M502.2,143.8h-58.7l16.5-16.5c5-5,5-13.1,0-18.1c-5-5-13.1-5-18.1,0l-38.4,38.4c-5,5-5,13.1,0,18.1
				l38.4,38.4c2.5,2.5,5.8,3.7,9.1,3.7c3.3,0,6.6-1.2,9.1-3.7c5-5,5-13.1,0-18.1l-16.5-16.5h58.7c7.1,0,12.8-5.7,12.8-12.8
				S509.3,143.8,502.2,143.8z"/>
		</g>
	</g>
</g>
</svg>
