<?xml version="1.0" encoding="utf-8"?>
<!-- Generator: Adobe Illustrator 22.1.0, SVG Export Plug-In . SVG Version: 6.00 Build 0)  -->
<svg version="1.1" id="Capa_1" xmlns="http://www.w3.org/2000/svg" xmlns:xlink="http://www.w3.org/1999/xlink" x="0px" y="0px"
	 viewBox="0 0 303.6 520" style="enable-background:new 0 0 303.6 520;" xml:space="preserve">
<style type="text/css">
	.st0{fill:#F56C6D;stroke:#F1F3F6;stroke-width:8;stroke-miterlimit:10;}
</style>
<g>
	<path class="st0" d="M281.4,227.4c-0.3-1.3-1-2.6-1.8-3.7c-5.4-10.7-12.1-22.3-20.5-34.7c-3.8-5.7-7.2-11.8-10.1-18.1
		c-5.4-11.9-24-3.5-18.6,8.4c3.3,7.3,7.3,14.4,11.7,21c5.8,8.7,10.8,16.9,15.1,24.5c-68.7,27.6-153.4,39.8-222.6,6.8
		c19.1-42.7,37.7-103,28.1-162.9c-6.4-39.4-22.1-60-22.7-60.9c-8-10.4-24.2,2-16.2,12.4c0.1,0.2,13.7,18.4,19,53.2
		c9,58.6-11.7,118.4-30.7,158.3c-1.6,3.3-12.9,29-5.4,88.6c5.7,44.6,19.5,87.9,41.2,128.9c21.3,40.2,24.1,53.5,24.3,57.3
		c0.7,13.1,21.1,12.2,20.4-1.1c-0.2-4.3-0.9-17.2-26.6-65.8C45.3,401,32.2,360,26.9,317.9c-3.3-26.3-2.7-46.2-0.8-59.6
		c55.2,38.3,92.7,80.9,102.4,92.4c-2.7,68.4-7.2,142.9-10.3,151.8c-4.5,12.3,14.7,19.3,19.2,7c5.5-15.2,10.3-127,11.5-157.9
		c10.9-12.8,64.9-74.6,118-107.2c17.3,39.8,12.7,65.3,8.2,90.1c-8.6,47.7-28.5,93.3-45.8,138.4c-7.3,18.9-10.5,27.4-11.3,30.6
		c-3.2,12.6,16.4,17.7,19.8,5c0.6-2.3,5.5-14.9,10.6-28.3c17.7-46.3,37.9-93.1,46.8-142C300.1,311,306,278.4,281.4,227.4
		L281.4,227.4z M139.1,331.7c-11.8-13.5-36.1-39.5-70.2-66.9c46.1,10.7,94.7,8.1,140.4-3C178.1,288.4,151.7,317.2,139.1,331.7
		L139.1,331.7z"/>
	<path class="st0" d="M225.7,105c5.5,0.3,10.5-4.1,10.8-9.6c2.4-42.5,17.4-76.8,17.5-77.2c5.3-12-13.4-20.2-18.7-8.3
		c-0.7,1.5-16.6,37.9-19.3,84.2C215.8,99.9,220.1,104.7,225.7,105z"/>
	<path class="st0" d="M133.3,194.3c5.6,0,10.2-4.6,10.2-10.2v-21.5c0-13.1-20.4-13.1-20.4,0v21.5
		C123.1,189.7,127.6,194.3,133.3,194.3z"/>
	<path class="st0" d="M237.4,130c-2.4-3.6-7.1-5.3-11.2-4.2c-4.3,1.2-7.4,5.1-7.5,9.6c-0.2,9.1,11.3,13.9,17.6,7.3
		C239.6,139.3,240.1,134,237.4,130z"/>
</g>
</svg>
