<?xml version="1.0" encoding="utf-8"?>
<!-- Generator: Adobe Illustrator 22.1.0, SVG Export Plug-In . SVG Version: 6.00 Build 0)  -->
<svg version="1.1" id="Capa_1" xmlns="http://www.w3.org/2000/svg" xmlns:xlink="http://www.w3.org/1999/xlink" x="0px" y="0px"
	 viewBox="0 0 516 516" style="enable-background:new 0 0 516 516;" xml:space="preserve">
<style type="text/css">
	.st0{fill:#F56C6D;stroke:#FFFFFF;stroke-width:4;stroke-miterlimit:10;}
</style>
<g>
	<g>
		<path class="st0" d="M430.2,453.1v-30.9h-24.5C461.4,377.5,494,310.3,494,238c0-63-24.6-122.3-69.1-166.9C380.3,26.6,321,2,258,2
			S135.7,26.6,91.1,71.1C46.5,115.7,22,175,22,238c0,72.3,32.6,139.5,88.3,184.1H85.8V453H2v61h512v-60.9H430.2z M36.9,238
			c0-121.9,99.2-221,221.1-221s221.1,99.1,221.1,221c0,65-28.2,125.7-76.7,167.4c1.2-4,1.9-8.3,1.9-12.8c0-24.5-19.9-44.4-44.4-44.4
			h-18.5c1.9-3.7,3-8,3-12.5V248c0-15.1-12.3-27.4-27.4-27.4h-4.5h-31.9v-8.5c12-7.5,20-20.8,20-36v-4.2l7.1-14.5
			c6.4-13,7.4-27.8,2.9-41.6c-2.5-7.7-6.6-14.6-12-20.4V80.3c0-11.8-7.5-22-18.1-25.8c0.1-0.7,0.1-1.4,0.1-2.1
			c0-10.6-13.2-24.3-17.2-28.3L258,19l-5.2,5.1c-4,4-17.2,17.7-17.2,28.3c0,0.7,0,1.4,0.1,2.1c-10.5,3.8-18.1,14-18.1,25.8v15.2
			c-5.4,5.8-9.5,12.7-12,20.4c-4.5,13.8-3.5,28.5,2.9,41.6l7.1,14.5v4.2c0,15.1,8,28.5,20,36v8.5h-36.4c-15.1,0-27.4,12.3-27.4,27.4
			v87.8c0,4.5,1.1,8.7,3,12.5h-17.5c-24.5,0-44.4,19.9-44.4,44.4c0,4.9,0.8,9.6,2.3,14C65.7,364.9,36.9,303.7,36.9,238z M271,67.9
			c6.9,0,12.5,5.6,12.5,12.5v3.8l0,0c-15.9-8.3-35-8.3-50.9,0l0,0v-3.8c0-6.9,5.6-12.5,12.5-12.5H271z M250.5,52.4
			c0.1-2,3.3-6.9,7.5-11.9c4.2,5,7.4,10,7.5,11.9c0,0.2,0,0.3,0,0.5h-14.9C250.5,52.7,250.5,52.6,250.5,52.4z M239.5,97.4
			c11.6-6,25.5-6,37.1,0c12.6,6.5,20.3,19,21.5,32.3h-17c-9.2,0-17.4,4.1-23,10.5c-5.6-6.4-13.8-10.5-23-10.5h-17
			C219.2,116.4,226.9,104,239.5,97.4z M230.6,144.7h4.5c8.5,0,15.5,6.9,15.5,15.5h15c0-8.5,6.9-15.5,15.5-15.5h4.5v31.4
			c0,15.1-12.3,27.4-27.4,27.4s-27.4-12.3-27.4-27.4L230.6,144.7L230.6,144.7z M297.4,318.4h-78.8v-42.5l56.8-40.3h22.1v82.8H297.4z
			 M312.4,333.4v-97.8h4.5c6.9,0,12.5,5.6,12.5,12.5v87.8c0,6.9-5.6,12.5-12.5,12.5h-80.1c3.1-8.7,11.4-15,21.2-15H312.4
			L312.4,333.4z M250.5,234.8v-16.9c2.4,0.4,4.9,0.7,7.5,0.7s5.1-0.2,7.5-0.7v6.3L250.5,234.8z M249.5,235.5l-45.9,32.6v65.2h24.5
			c-3.3,4.4-5.6,9.4-6.8,15h-20.2h-2c-6.9,0-12.5-5.6-12.5-12.5V248c0-6.9,5.6-12.5,12.5-12.5H249.5L249.5,235.5z M199.1,363.3h2
			h115.8c0.7,0,1.3,0,2-0.1v0.1h40.9c16.2,0,29.4,13.2,29.4,29.4s-13.2,29.4-29.4,29.4H157.2c-16.2,0-29.4-13.2-29.4-29.4
			s13.2-29.4,29.4-29.4H199.1z M100.8,437.1h56.4h202.6h55.4v16H100.8V437.1z M499,499H17v-30.9h482V499L499,499z"/>
	</g>
</g>
<g>
	<g>
		<g>
			<path class="st0" d="M420.8,111.8L409,121c2.9,3.8,5.8,7.7,8.4,11.7l12.5-8.3C427,120.1,423.9,115.8,420.8,111.8z"/>
		</g>
	</g>
	<g>
		<g>
			<path class="st0" d="M437.9,137.6l-13.1,7.3c9.4,16.8,16.2,34.9,20.2,53.7l14.7-3.1C455.4,175.3,448.1,155.8,437.9,137.6z"/>
		</g>
	</g>
	<g>
		<g>
			<path class="st0" d="M399.9,88.7l-10.3,10.8c3.5,3.3,6.9,6.8,10.1,10.3l11.1-10C407.3,96,403.7,92.3,399.9,88.7z"/>
		</g>
	</g>
	<g>
		<g>
			<path class="st0" d="M343.2,50.4L336.9,64c15,6.8,29.1,15.6,41.9,26.1l9.5-11.6C374.5,67.2,359.3,57.7,343.2,50.4z"/>
		</g>
	</g>
	<g>
		<g>
			<path class="st0" d="M84,317l-13.6,6.2c5.5,12,12.2,23.6,19.9,34.4l12.2-8.7C95.2,338.9,89,328.2,84,317z"/>
		</g>
	</g>
	<g>
		<g>
			<path class="st0" d="M193.8,42.2c-21.2,7-41.1,17.3-59,30.8l9,12c16.7-12.5,35.1-22.1,54.7-28.5L193.8,42.2z"/>
		</g>
	</g>
	<g>
		<g>
			<path class="st0" d="M122.7,82.7c-3.9,3.4-7.7,7-11.3,10.6l10.7,10.5c3.4-3.4,6.9-6.7,10.5-9.9L122.7,82.7z"/>
		</g>
	</g>
	<g>
		<g>
			<path class="st0" d="M100.9,104.8c-3.3,3.9-6.6,8-9.6,12.2l12.1,8.8c2.8-3.9,5.8-7.7,8.9-11.3L100.9,104.8z"/>
		</g>
	</g>
	<g>
		<g>
			<path class="st0" d="M82.6,129.9C62.5,162.3,51.9,199.7,51.9,238h15c0-35.5,9.9-70.2,28.5-100.3L82.6,129.9z"/>
		</g>
	</g>
	<g>
		<g>
			<path class="st0" d="M449.1,239.1c0,4.8-0.2,9.6-0.6,14.4l14.9,1.2c0.4-5.1,0.6-10.4,0.7-15.5L449.1,239.1z"/>
		</g>
	</g>
	<g>
		<g>
			<path class="st0" d="M440.2,295.8c-6.2,19.5-15.5,37.9-27.7,54.6l12.1,8.8c13.1-18,23.1-37.8,29.9-58.9L440.2,295.8z"/>
		</g>
	</g>
	<g>
		<g>
			<path class="st0" d="M446.8,267.8c-0.7,4.7-1.7,9.5-2.8,14.1l14.6,3.4c1.2-5,2.2-10.1,3-15.2L446.8,267.8z"/>
		</g>
	</g>
	<g>
		<g>
			<path class="st0" d="M82.6,222.2c-0.5,5.2-0.7,10.4-0.7,15.6h15c0-4.8,0.2-9.6,0.7-14.3L82.6,222.2z"/>
		</g>
	</g>
	<g>
		<g>
			<path class="st0" d="M97.7,165c-6,13.3-10.4,27.3-13,41.7l14.7,2.6c2.4-13.2,6.4-26,11.9-38.1L97.7,165z"/>
		</g>
	</g>
	<g>
		<g>
			<path class="st0" d="M133.1,113.8c-3.7,3.7-7.2,7.6-10.5,11.6l11.5,9.6c3-3.6,6.3-7.2,9.6-10.6L133.1,113.8z"/>
		</g>
	</g>
	<g>
		<g>
			<path class="st0" d="M102.5,280.2L88,284.1c3.8,14.1,9.4,27.7,16.5,40.4l13-7.3C111,305.6,105.9,293.1,102.5,280.2z"/>
		</g>
	</g>
	<g>
		<g>
			<path class="st0" d="M97.5,252.1l-14.9,1.3c0.4,5.2,1.1,10.4,2,15.5l14.7-2.6C98.5,261.6,97.9,256.8,97.5,252.1z"/>
		</g>
	</g>
	<g>
		<g>
			<path class="st0" d="M113.1,137.8c-3,4.3-5.8,8.7-8.3,13.2l13,7.4c2.3-4.1,4.9-8.2,7.6-12.1L113.1,137.8z"/>
		</g>
	</g>
	<g>
		<g>
			<path class="st0" d="M382.6,113.5L372,124.1c27.6,27.6,44.2,64.1,46.8,102.8l14.9-1C430.9,183.5,412.7,143.6,382.6,113.5z"/>
		</g>
	</g>
	<g>
		<g>
			<path class="st0" d="M419.1,241.1c-0.1,4.8-0.4,9.6-0.9,14.3L433,257c0.6-5.1,0.9-10.4,1-15.6L419.1,241.1z"/>
		</g>
	</g>
	<g>
		<g>
			<path class="st0" d="M408,297c-2.1,5.3-4.4,10.5-7,15.4l13.3,6.9c2.8-5.5,5.4-11.1,7.7-16.9L408,297z"/>
		</g>
	</g>
	<g>
		<g>
			<path class="st0" d="M416,269.6c-0.9,4.7-2.1,9.3-3.4,13.9l14.4,4.2c1.4-5,2.7-10.1,3.7-15.2L416,269.6z"/>
		</g>
	</g>
	<g>
		<g>
			<rect x="206.1" y="385.3" class="st0" width="15" height="15"/>
		</g>
	</g>
	<g>
		<g>
			<rect x="266" y="385.3" class="st0" width="33.9" height="15"/>
		</g>
	</g>
	<g>
		<g>
			<rect x="157.2" y="385.3" class="st0" width="33.9" height="15"/>
		</g>
	</g>
	<g>
		<g>
			<rect x="236" y="385.3" class="st0" width="15" height="15"/>
		</g>
	</g>
	<g>
		<g>
			<rect x="344.8" y="385.3" class="st0" width="15" height="15"/>
		</g>
	</g>
	<g>
		<g>
			<rect x="314.9" y="385.3" class="st0" width="15" height="15"/>
		</g>
	</g>
	<g>
		<g>
			<rect x="267.5" y="263.5" class="st0" width="15" height="15"/>
		</g>
	</g>
	<g>
		<g>
			<rect x="234" y="291.4" class="st0" width="25" height="15"/>
		</g>
	</g>
</g>
</svg>
