<?xml version="1.0" encoding="utf-8"?>
<!-- Generator: Adobe Illustrator 22.1.0, SVG Export Plug-In . SVG Version: 6.00 Build 0)  -->
<svg version="1.1" id="Layer_1" xmlns="http://www.w3.org/2000/svg" xmlns:xlink="http://www.w3.org/1999/xlink" x="0px" y="0px"
	 viewBox="0 0 520 482.9" style="enable-background:new 0 0 520 482.9;" xml:space="preserve">
<style type="text/css">
	.st0{fill:#F56C6D;stroke:#F1F3F6;stroke-width:8;stroke-miterlimit:10;}
</style>
<g>
	<g>
		<path class="st0" d="M400.8,221.2h-93.2L285,153.1c-1.8-5.3-6.9-9.5-12.4-8.7c-5.6,0.1-10.5,3.9-12,9.3l-37.4,130.7l-40.3-181.1
			c-1.2-5.5-5.9-9.5-11.5-10c-5.6-0.4-10.8,2.8-12.9,8l-48,120H16.8C9.7,221.2,4,226.9,4,234c0,7.1,5.7,12.8,12.8,12.8h102.4
			c5.2,0,9.9-3.2,11.9-8l35.8-89.5l42.2,190c1.3,5.7,6.3,9.8,12.1,10c0.1,0,0.2,0,0.4,0c5.7,0,10.7-3.8,12.3-9.3l39.9-139.4
			l12.5,37.5c1.7,5.2,6.6,8.7,12.2,8.7h102.4c7.1,0,12.8-5.7,12.8-12.8C413.6,226.9,407.9,221.2,400.8,221.2z"/>
	</g>
</g>
<g>
	<g>
		<path class="st0" d="M471,49C441,19,401.7,4,362.4,4C325.6,4,289.1,17.7,260,43.9C230.9,17.7,194.4,4,157.6,4C118.3,4,79,19,49,49
			C9.2,88.8-3.6,144.8,9.4,195.6H36c-13.7-44-3.7-93.8,31.1-128.5c24.2-24.2,56.3-37.5,90.5-37.5c31.2,0,60.4,11.6,83.7,31.9L260,79
			l18.7-17.5c23.3-20.3,52.5-31.9,83.7-31.9c34.2,0,66.3,13.3,90.5,37.5c49.9,49.9,49.9,131.1,0,181L260,441L91.4,272.4H55.2
			L260,477.2l211-211C531,206.2,531,109,471,49z"/>
	</g>
</g>
</svg>
