<?xml version="1.0" encoding="utf-8"?>
<!-- Generator: Adobe Illustrator 22.1.0, SVG Export Plug-In . SVG Version: 6.00 Build 0)  -->
<svg version="1.1" id="Capa_1" xmlns="http://www.w3.org/2000/svg" xmlns:xlink="http://www.w3.org/1999/xlink" x="0px" y="0px"
	 viewBox="0 0 512.5 393" style="enable-background:new 0 0 512.5 393;" xml:space="preserve">
<style type="text/css">
	.st0{fill:#F56C6D;stroke:#F56C6D;stroke-width:0.5;stroke-miterlimit:10;}
</style>
<g>
	<g>
		<g>
			<path class="st0" d="M486.6,0.2H25.9C11.8,0.2,0.2,11.7,0.2,25.9v341.3c0,14.1,11.5,25.6,25.6,25.6h460.8
				c14.1,0,25.6-11.5,25.6-25.6V25.9C512.2,11.7,500.8,0.2,486.6,0.2z M495.1,367.2c0,4.7-3.8,8.5-8.5,8.5H25.9
				c-4.7,0-8.5-3.8-8.5-8.5V25.9c0-4.7,3.8-8.5,8.5-8.5h460.8c4.7,0,8.5,3.8,8.5,8.5V367.2L495.1,367.2z"/>
			<path class="st0" d="M470.4,34.5c-2.3-0.2-4.5,0.5-6.2,2L267.2,201.8c-6.3,5.3-15.6,5.3-22,0L48.5,36.5c-2.3-2-5.5-2.5-8.4-1.5
				c-2.9,1-5,3.5-5.5,6.5s0.6,6.1,2.9,8l196.8,165.4c12.7,10.7,31.2,10.7,43.9,0L475,49.4c1.7-1.5,2.8-3.5,3-5.8s-0.5-4.5-2-6.2
				C474.6,35.7,472.5,34.6,470.4,34.5z"/>
			<path class="st0" d="M164.4,213.7c-3-0.7-6.2,0.3-8.2,2.6l-119.5,128c-2.2,2.2-3,5.4-2.1,8.4s3.3,5.2,6.3,5.9
				c3,0.7,6.2-0.3,8.2-2.6l119.5-128c2.2-2.2,3-5.4,2.1-8.4S167.4,214.3,164.4,213.7z"/>
			<path class="st0" d="M356.4,216.3c-2.1-2.3-5.2-3.3-8.2-2.6s-5.4,2.9-6.3,5.9s-0.1,6.2,2.1,8.4l119.5,128
				c3.2,3.3,8.5,3.4,11.9,0.3c3.4-3.2,3.6-8.5,0.5-11.9L356.4,216.3z"/>
		</g>
	</g>
</g>
</svg>
