<?xml version="1.0" encoding="utf-8"?>
<!-- Generator: Adobe Illustrator 22.1.0, SVG Export Plug-In . SVG Version: 6.00 Build 0)  -->
<svg version="1.1" id="logo-dark" xmlns="http://www.w3.org/2000/svg" xmlns:xlink="http://www.w3.org/1999/xlink" x="0px" y="0px"
	 viewBox="0 0 195.5 216.1" style="enable-background:new 0 0 195.5 216.1;" xml:space="preserve">
<style type="text/css">
	.st0{fill:none;stroke:#212529;stroke-width:2.8302;stroke-linecap:round;stroke-miterlimit:10;}
	.st1{fill:#212529;}
	.st2{fill:#212529;stroke:#212529;stroke-width:0.7076;stroke-miterlimit:10;}
</style>
<g>
	<path class="st0" d="M165.9,180.5c-37.6,37.6-98.7,37.6-136.3,0S-8,81.9,29.6,44.3"/>
	<path class="st0" d="M193.8,108c1.2,26.2-8.1,52.7-28.1,72.7"/>
	<path class="st0" d="M29.4,44.4c9.8-9.8,21.2-17.1,33.3-21.7"/>
</g>
<g>
	<path class="st1" d="M71.5,28.6l1.3-0.5l-2.7-13l-1.3,0.1L79.5,13l0.6,2.8c-0.2-1-0.8-2.1-2.3-1.8l-5.4,1l1.1,5.3l4-0.8
		c0.9-0.2,0.7-1.4,0.5-2.1l0.9,4.3c-0.2-0.7-0.4-1.9-1.3-1.7l-4,0.8l1.4,6.8l1.3-0.1L71.5,28.6z"/>
	<path class="st1" d="M83.4,19.2c-0.2-3.4,1.7-6.9,5.9-7.2c4.3-0.3,6.6,3,6.8,6.4c0.2,3.5-1.7,7.1-5.9,7.3
		C86,26,83.6,22.6,83.4,19.2z M93.9,18.8c-0.2-3.2-1.8-6.4-4.5-6.2c-2.6,0.2-3.8,3.5-3.6,6.7c0.2,3.1,1.7,6,4.4,5.8
		C92.9,25,94,21.9,93.9,18.8z"/>
	<path class="st1" d="M105.3,25.9l1.1-0.1l-2.1-5.1l-3.4,4.7l0.3,0.1L99,25.4l0.5-0.1l4.2-5.8l-3.1-7.5l-1.2-0.3l4.8,0.4l-1.1,0.1
		l2.1,5.1l3.4-4.7l-0.3-0.1l2.2,0.2l-0.5,0.1l-4.2,5.8l3.1,7.5l1.2,0.3L105.3,25.9z"/>
	<path class="st1" d="M111.8,26.6l1.4,0.1l2.9-13l-1.3-0.5l10.7,2.4l-0.6,2.7c0.2-1,0.2-2.3-1.3-2.6l-5.3-1.2l-1.2,5.3l4,0.9
		c0.9,0.2,1.2-1,1.3-1.7l-1,4.3c0.2-0.7,0.4-1.9-0.5-2.1l-3.9-0.9l-1.4,6.4l5.3,1.2c1.5,0.3,2.1-0.8,2.3-1.8l-0.6,2.7L111.8,26.6z"
		/>
	<path class="st1" d="M127.1,30.6l1.3,0.3l1.9-5.1l-0.3-8.5l-1.1-0.6l4.5,1.7l-1-0.2l0.2,6.7l5.1-4.9l-0.3-0.2l2,0.8h-0.5l-6.5,6.3
		l-1.8,4.8l1.1,0.6L127.1,30.6z"/>
	<path class="st1" d="M139.5,27.9c1.6-3,5.1-5,8.8-2.9s4,6,2.4,9c-1.7,3-5.2,5.1-8.9,3.1C138,35.1,137.8,31,139.5,27.9z M148.5,33.2
		c1.5-2.8,1.9-6.4-0.5-7.6c-2.3-1.3-5.1,1-6.7,3.8c-1.5,2.7-1.8,6,0.6,7.3C144.4,37.9,147,35.9,148.5,33.2z"/>
	<path class="st1" d="M152.8,44.1c-2.7-2-2.1-5.6-0.2-8.3c2-2.7,5.5-4.5,8.5-2.6l0.3,0.2c0.6,0.4,1.1,1,1.3,1.6
		c0.1,0.2,0.1,0.2,0.2,0.3c0.2,0.2,0.6-0.1,1-0.5l-2,2.7c0,0,0.5-1.1,0.5-1.5c-0.1-0.8-0.4-1.5-1.1-1.9c-2-1.3-4.8,0.4-7,3.3
		c-1.8,2.4-2.6,5.2-0.9,6.5c1.3,0.9,2.1,0.2,2.9-0.9c0.3-0.4,0.5-0.8,0.8-1.1l-0.8-0.8l3.9,2.9l-1.2-0.7l-2.2,3
		c0.2-0.5,0.4-0.9,0.2-1c0,0-0.1-0.1-0.2-0.1c-1.3-0.1-2.8-0.2-3.9-0.9L152.8,44.1z"/>
	<path class="st1" d="M163.8,53.7l1,0.7l2.3-4.1l-3-3l-4,2.3l0.3,0.7l-1.5-1.5l0.8,0.4l11.9-7v-0.1l1.6,1.6l-6.9,12.2l0.8,1.1
		L163.8,53.7z M171.1,43.2l-6.5,3.8l2.8,2.8L171.1,43.2z"/>
	<path class="st1" d="M173.6,63.5c-0.6,0.4-1.3,0.4-1.7-0.2c-0.4-0.6-0.3-1.3,0.3-1.7s1.3-0.4,1.7,0.2
		C174.3,62.3,174.2,63,173.6,63.5z"/>
	<path class="st1" d="M180.6,72.8l-1.7-2.9c-0.6,0.5-0.8,1.3-0.4,2c0.3,0.4,0.6,0.7,1.1,0.8l-0.1,0.5c-0.6-0.1-1.1-0.5-1.4-1.1
		c-0.6-1-0.3-2.2,0.7-2.8c1-0.6,2.2-0.3,2.8,0.7C182.3,71.1,181.8,72.1,180.6,72.8z M180.8,72.1c0.7-0.4,0.8-1.2,0.4-1.8
		c-0.4-0.7-1.1-0.9-1.9-0.6L180.8,72.1z"/>
	<path class="st1" d="M183.3,73.9c-0.2-0.4-0.5-0.6-0.9-0.4c-0.8,0.4,0.7,2.2-0.6,2.9c-0.7,0.4-1.4-0.1-1.7-0.8
		c-0.3-0.5-0.4-1.1-0.2-1.7h0.5c-0.1,0.5,0,1,0.2,1.4s0.6,0.7,0.9,0.5c0.9-0.5-0.6-2.2,0.6-2.9c0.7-0.4,1.3,0.1,1.7,0.7
		c0.2,0.4,0.3,0.9,0.3,1.3h-0.5C183.5,74.6,183.4,74.2,183.3,73.9z"/>
	<path class="st1" d="M182.4,79.6c-0.3-0.2-0.5-0.4-0.7-0.7c-0.3-0.5-0.1-1.1,0.6-1.4l2.1-1l-0.3-0.5l0.4-0.2l0.3,0.5l1-0.5l0.3,0.5
		l-1,0.5l0.6,1.2l-0.4,0.2l-0.6-1.2l-2,1c-0.4,0.2-0.5,0.5-0.4,0.8c0.1,0.2,0.3,0.3,0.5,0.5L182.4,79.6z"/>
	<path class="st1" d="M188.3,83.5c0.5-0.2,0.6-0.7,0.3-1.4c-0.2-0.5-0.7-0.9-1.2-1.2l0.3-0.4c0.6,0.3,1.2,0.8,1.4,1.5
		c0.4,1,0.2,1.8-0.6,2.1c-0.5,0.2-1.2,0.1-2-0.2l-2.3-0.9l1.2,2.9l-0.5,0.2l-1.5-3.6l0.5-0.2l2.9,1.1
		C187.4,83.6,188,83.7,188.3,83.5z"/>
	<path class="st1" d="M189.2,89.7c-1.7,0.6-2.8,0.2-3.3-1c-0.4-1.2,0.2-2.2,1.9-2.8c1.7-0.6,2.8-0.2,3.3,1
		C191.5,88.1,190.8,89.1,189.2,89.7z M188,86.5c-1.4,0.5-2,1.2-1.6,2.1c0.3,0.9,1.2,1.1,2.6,0.6c1.4-0.5,1.9-1.2,1.6-2.1
		C190.3,86.2,189.4,86,188,86.5z"/>
	<path class="st1" d="M191.6,93c0.5-0.2,0.7-0.7,0.5-1.3c-0.1-0.5-0.6-1-1.1-1.3l0.4-0.4c0.6,0.4,1.1,1,1.3,1.6c0.3,1,0,1.8-0.8,2
		c-0.5,0.1-1.2-0.1-2-0.5l-2.2-1.2l0.9,3l-0.6,0.2l-1.1-3.7l0.5-0.1l2.7,1.4C190.7,93,191.2,93.1,191.6,93z"/>
	<path class="st1" d="M191.8,99.3c-1.7,0.4-2.8,0-3.2-1.3c-0.3-1.3,0.5-2.2,2.2-2.6s2.8,0,3.1,1.3C194.3,97.9,193.5,98.8,191.8,99.3
		z M191,95.9c-1.4,0.4-2.1,1-1.8,1.9c0.2,0.9,1.1,1.2,2.5,0.8c1.4-0.4,2-1,1.8-1.9C193.3,95.9,192.5,95.6,191,95.9z"/>
</g>
<g>
	<path class="st2" d="M50.8,164h12.4c1.1,0,2.1-0.4,2.9-1.2s1.2-1.8,1.2-2.9v-4c0-1,0.1-2.1,0.3-3.1l2.4-13.9
		c7.4-0.7,18.9-3,21.3-3.5c5.3,4.4,14.4,9.8,20.4,13.1c1.8,1,3.8,1.6,5.9,1.9l15.5,1.6c2,0.2,3.9,1,5.4,2.1l0.6,0.5l-0.7,4.4
		l-1.7,0.5c-1,0.3-1.6,1.2-1.6,2.1c0,1.2,1,2.2,2.2,2.2h3.9c1.4,0,2.7-0.9,3.2-2.2l2.9-7.6c0.1-0.4,0.2-0.8,0.2-1.2
		c0-1.5-1-2.8-2.4-3.3l-4.1-1.3l-9.4-5.8c-1.7-1.1-3.7-1.8-5.7-2.1l-5.2-0.8c-2.1-0.3-4.1-1.2-5.9-2.4l-7.5-5.4
		c-1.8-1.3-3.2-3.2-4-5.3v-0.1c-0.7-2-1.9-3.8-3.4-5.2l-2.3-2.1l-1.2-3.2v-5.1l3.4-5.3c1.1-1.7,1.5-3.7,1.2-5.7l-0.8-4.5l0.5-1.4
		c4.3-0.8,6-5.3,6.1-5.5c0.1-0.3,0.2-0.6,0.3-0.9c0.3,0.1,0.6,0.1,1,0.1c1.1,0,2.2-0.4,3.1-1.1c2.2-1.7,2.6-4.9,0.9-7.1
		c-1.4-1.9-4-2.4-6-1.5c0-0.1-0.1-0.1-0.1-0.2l-0.1-0.1l4.8-15.4l4.4-3.9c0.5-0.4,0.8-1,0.8-1.7s-0.3-1.3-0.9-1.8
		c-0.5-0.4-1.2-0.6-1.9-0.4l-0.3,0.1l0.6-2.2c0.2-0.7,0.1-1.5-0.3-2.2s-1.1-1.1-1.8-1.3h-0.2c-1.1-0.2-2.3,0.3-2.8,1.3l-2.2,3.7
		c-0.4,0.7-0.7,1.6-0.8,2.4l-0.4,4.3L99.2,74c-2.4-0.5-5.4,1-6.4,2.1c-1.4,1.5-2.2,3.7-2.4,4.5L88,82.5c-0.4,0.3-0.5,0.8-0.2,1.2
		l1,1.7c-0.3,0.7-0.9,2.1-0.8,3.2c0.1,1,1.5,3.6,3.8,4.2l-0.3,0.7l-6.2,2.8c-2.2,1-3.9,3.1-4.4,5.5c-0.4,1.9-0.2,3.9,0.8,5.6
		l1.3,2.5l-0.4,5.2l-0.9,6c0,0.3,0,0.6,0.2,0.8L82,122l-0.2,0.4L62,129.6c-1.8,0.6-3,2.3-2.9,4.2l1,17.5c0.1,2.3-0.2,4.6-0.9,6.8
		l-8.9,2c-0.9,0.2-1.5,1-1.5,1.9C48.9,163.1,49.8,164,50.8,164L50.8,164z M140.1,150.1c0.1,0,0.1,0.1,0.2,0.1l4.2,1.3
		c0.7,0.2,1.1,0.8,1.1,1.5c0,0.2,0,0.4-0.1,0.6l-2.9,7.6c-0.2,0.6-0.8,1-1.5,1h-3.9c-0.2,0-0.4-0.2-0.4-0.4s0.1-0.3,0.3-0.4l2.3-0.6
		c0.3-0.1,0.6-0.4,0.7-0.7l0.9-5.5c0.1-0.3-0.1-0.7-0.4-0.9l-1.1-0.8c-1.9-1.4-4-2.3-6.4-2.5l-11-1.2c0.5-1.8,2.1-4.8,3.4-6.8
		c1.8,0.3,3.4,0.9,4.9,1.8L140.1,150.1z M105,87.7c0,0-1.1,3-3.7,4.1l3.8-12l0,0C106,82,106,85.1,105,87.7z M110.5,80.5
		c1.1,1.4,0.8,3.4-0.6,4.5c-0.7,0.6-1.6,0.8-2.5,0.6c0.3-2.1,0.2-4.3-0.5-6.1C108.2,79.1,109.6,79.4,110.5,80.5z M106.6,61.2
		c0-0.1,0.1-0.2,0.1-0.3l0.4-4.4c0-0.6,0.2-1.1,0.5-1.6l2.2-3.7c0.2-0.3,0.5-0.4,0.8-0.4c0.1,0,0.1,0,0.2,0h0.2
		c0.3,0,0.5,0.2,0.6,0.4s0.2,0.5,0.1,0.7l-1.1,3.7c-0.1,0.3,0,0.7,0.2,0.9s0.6,0.3,0.9,0.3l1.9-0.5c0.2,0,0.3,0,0.3,0.1
		c0.1,0,0.1,0.1,0.1,0.3c0,0.1-0.1,0.2-0.1,0.3l0,0l-4.6,4.1c-0.1,0.1-0.2,0.3-0.3,0.4l-5.1,16.3l-6.9,22c-0.4,1.3-1.6,2.1-2.9,2
		c-0.8-0.1-1.6-0.6-2-1.3c-0.4-0.7-0.5-1.6-0.2-2.4l8.7-22.2L106.6,61.2z M98.4,75.8l-1.7,4.4c-1-1.1-2-2.1-2.6-2.8
		C94.8,76.7,96.8,75.6,98.4,75.8z M89.8,88.4c0-0.7,0.5-2,0.8-2.7c0.1-0.3,0.1-0.6,0-0.9l-0.8-1.4l1.9-1.5c0.2-0.1,0.3-0.3,0.3-0.5
		c0,0,0.4-1.3,1.1-2.6c0.8,0.8,1.9,2,2.9,3.1l0,0.1l-3.5,9C90.8,90.7,89.8,88.8,89.8,88.4L89.8,88.4z M82.6,102.2
		c0.4-1.8,1.7-3.4,3.4-4.2l4.5-2.1L90,97.3c-0.5,1.3-0.4,2.8,0.3,4c0.7,1.2,2,2,3.4,2.2c0.2,0,0.4,0,0.5,0c2,0,3.8-1.3,4.4-3.3
		l0.4-1.1l0.2,1c0.3,1.5,0,3.1-0.9,4.4l-3.6,5.5c-0.1,0.1-0.1,0.3-0.1,0.5v5.5c0,0.1,0,0.2,0.1,0.3l1,2.6l-11.9,1.2l0.7-4.8
		c0,0,0,0,0-0.1l0.5-5.5c0-0.2,0-0.4-0.1-0.5l-1.5-2.7C82.5,105.2,82.3,103.6,82.6,102.2L82.6,102.2z M62.6,131.4l20.2-7.5
		c0.2-0.1,0.4-0.3,0.5-0.5l0.5-1.4l12.7-1.2l2,1.9c1.3,1.2,2.3,2.8,2.9,4.5v0.1c0.9,2.5,2.5,4.6,4.6,6.2l7.5,5.4
		c2,1.4,4.3,2.4,6.7,2.8l3.3,0.5c-1,1.7-2.7,4.8-3.2,6.9l-2.7-0.3c-1.8-0.2-3.6-0.7-5.2-1.6c-13.5-7.5-22.3-13.7-23.5-16.7l-1.7,0.7
		c0.4,0.9,1.1,1.9,2.2,2.9c-5,1-19.3,3.7-24,3.3l-0.1,1.8c0.3,0,0.7,0,1.1,0c0.5,0,1,0,1.5,0l-0.3,1.7c-3.3-0.1-5.6-1.1-6.4-1.6
		l-0.3-5.6C60.9,132.7,61.6,131.7,62.6,131.4L62.6,131.4z M50.8,161.9l9.4-2.1c0.3-0.1,0.6-0.3,0.7-0.6c1-2.6,1.4-5.3,1.2-8
		l-0.6-9.9c1.3,0.6,3.3,1.2,6,1.3l-1.7,9.9c-0.2,1.1-0.3,2.3-0.3,3.4v4c0,0.6-0.2,1.2-0.7,1.6c-0.4,0.4-1,0.7-1.6,0.7H50.8
		c-0.1,0-0.1-0.1-0.1-0.1C50.7,162,50.8,162,50.8,161.9L50.8,161.9z"/>
	<g id="Page-1_1_">
		<g id="_x30_02---Warrior-Pose_1_">
			<path id="Shape_3_" class="st1" d="M43.6,163.8c-1.2,0-2.1,0.8-2.1,1.8l0,0c0,1,1,1.8,2.1,1.8H148c1.2,0,2.1-0.8,2.1-1.8
				s-1-1.8-2.1-1.8h-14.4"/>
			<path id="Shape_2_" class="st1" d="M154,163.8c-1,0-1.8,0.8-1.8,1.8s0.8,1.8,1.8,1.8h1.8c1,0,1.8-0.8,1.8-1.8s-0.8-1.8-1.8-1.8
				H154z"/>
		</g>
	</g>
</g>
</svg>
