<?xml version="1.0" encoding="utf-8"?>
<!-- Generator: Adobe Illustrator 22.1.0, SVG Export Plug-In . SVG Version: 6.00 Build 0)  -->
<svg version="1.1" id="Layer_1" xmlns="http://www.w3.org/2000/svg" xmlns:xlink="http://www.w3.org/1999/xlink" x="0px" y="0px"
	 viewBox="0 0 600 361.6" style="enable-background:new 0 0 600 361.6;" xml:space="preserve">
<style type="text/css">
	.st0{fill:#F56C6D;stroke:#F1F3F6;stroke-width:4;stroke-miterlimit:10;}
</style>
<g id="surface1">
	<path class="st0" d="M18.9,335.6c2.8,13.9,15,23.9,29.2,24h162.5c0.1,0,0.2-0.1,0.3-0.1c0.5,0,1,0.1,1.5,0.1h339.4
		c14.2,0,26.4-10.1,29.2-24l16.7-83.3c1.1-5.4-2.4-10.6-7.8-11.7c-2.9-0.6-6,0.2-8.3,2.1L547,271.5c6.8-54-3.9-108.7-30.4-156.1
		L456.5,7.1c-3.1-4.8-9.5-6.2-14.3-3.1c-1.2,0.8-2.3,1.8-3.1,3.1l-19.6,35.4L399.9,7.1c-2.7-4.8-8.7-6.5-13.5-3.9
		c-1.6,0.9-3,2.2-3.9,3.9l-36.9,66.5L308.7,7.1c-3.1-4.8-9.5-6.2-14.3-3.1c-1.2,0.8-2.3,1.8-3.1,3.1l-35.1,63.2L221.1,7.1
		c-2.7-4.8-8.7-6.5-13.5-3.9c-1.6,0.9-3,2.2-3.9,3.9l-21.1,38l-21.1-38c-3.1-4.8-9.5-6.2-14.3-3.1c-1.2,0.8-2.3,1.8-3.1,3.1
		L84,115.4C57.4,163,46.8,217.9,53.7,272v0.1l-35.3-29.5c-4.2-3.5-10.5-3-14,1.3c-1.9,2.3-2.7,5.4-2.1,8.4L18.9,335.6z M561.6,331.8
		c-0.9,4.6-5,7.9-9.7,7.9h-44.3c11.8-8.8,21.6-20.2,28.6-33.2l36.7-30.6L561.6,331.8z M447.9,32.4l51.5,92.6
		c24.5,44,34.4,94.6,28,144.6c-4.9,38.8-37.2,68.4-76.3,70c21.7-16.2,35.9-40.6,39.3-67.5c6.9-54.1-3.8-109-30.4-156.7L430.9,63
		L447.9,32.4z M391.2,32.4l51.4,92.6c24.5,44,34.4,94.6,28,144.6c-5.1,40-39.1,70.1-79.5,70.1h-31.6c21.8-16.2,36.1-40.7,39.5-67.7
		c6.9-54.1-3.7-109-30.3-156.7L357,94L391.2,32.4z M300,32.4l51.5,92.6c24.5,44,34.3,94.6,28,144.6c-5.5,43.9-45.5,75-89.4,69.5
		c-36.4-4.5-65-33.2-69.5-69.5c-6.4-49.9,3.5-100.6,28-144.6L300,32.4z M212.5,32.4l32.4,58.4l-13.7,24.6
		C204.6,163,194,217.9,200.9,272c3.4,27,17.6,51.4,39.4,67.7h-27.9c-40.4-0.1-74.4-30.1-79.5-70.1c-6.4-49.9,3.4-100.6,28-144.6
		L212.5,32.4z M101.3,125l51.5-92.6l18.5,33.2l-27.7,49.8C117,163,106.4,217.9,113.2,272c3.4,27,17.7,51.4,39.5,67.7
		c-40.3-0.1-74.3-30.1-79.4-70.1C67,219.6,76.8,169,101.3,125z M65.2,307.6c6.9,12.6,16.5,23.5,28,32.1H48.1c-4.7,0-8.8-3.3-9.7-7.9
		L27.2,276L65.2,307.6z"/>
</g>
</svg>
