<?xml version="1.0" encoding="utf-8"?>
<!-- Generator: Adobe Illustrator 22.1.0, SVG Export Plug-In . SVG Version: 6.00 Build 0)  -->
<svg version="1.1" id="Layer_1" xmlns="http://www.w3.org/2000/svg" xmlns:xlink="http://www.w3.org/1999/xlink" x="0px" y="0px"
	 viewBox="0 0 603.9 603.7" style="enable-background:new 0 0 603.9 603.7;" xml:space="preserve">
<style type="text/css">
	.st0{fill:#F56C6D;stroke:#F1F3F6;stroke-width:4;stroke-miterlimit:10;}
</style>
<g id="surface1">
	<path class="st0" d="M500.6,122.9h-1c-44.4,0.7-86.6,19.6-116.5,52.4c-12-60.5-36.9-117.6-73.1-167.5c-3.6-4.4-10-5.2-14.5-1.6
		c-0.6,0.5-1.1,1-1.6,1.6c-36.2,49.9-61.1,107.1-73.1,167.5c-29.9-32.8-72-51.8-116.4-52.4h-1.1C48.5,123,4.1,167.4,4,222.3
		c0,48.1,38.6,165.9,97.1,168.7l-3.5,3.4c-41.1,39.9-69.9,90.9-82.7,146.7L4.3,587.5c-1.2,5.3,2.1,10.7,7.4,11.9
		c0.7,0.2,1.5,0.3,2.2,0.3s1.5-0.1,2.2-0.2l45-10.4c48-11.1,92.5-33.9,129.4-66.4c0.3,1.8,0.9,3.6,1.7,5.3
		c5.7,9.5,14.7,16.5,25.3,19.7c4.7,1.7,9.1,4.1,12.9,7.3c3,4.6,5.2,9.7,6.6,15c1.9,10.7,8,20.3,17,26.6c10.9,4.1,23.1,3.3,33.4-2.1
		c4.6-2,9.6-3.2,14.6-3.8c5,0.5,9.9,1.8,14.6,3.8c6.8,2.8,14,4.5,21.3,5c4.2,0,8.4-0.9,12.1-2.9c8.9-6.3,15-15.8,17-26.5
		c1.3-5.4,3.5-10.4,6.6-15c3.8-3.2,8.2-5.7,12.9-7.3c10.6-3.2,19.6-10.2,25.3-19.7c0.8-1.7,1.3-3.5,1.7-5.4
		c37,32.5,81.5,55.4,129.5,66.4l45,10.4c0.7,0.2,1.5,0.2,2.2,0.2c5.5,0,9.9-4.4,9.9-9.9c0-0.8-0.1-1.5-0.3-2.2L589,541.1
		c-12.9-55.9-41.6-106.8-82.7-146.7l-3.5-3.4c58.5-2.9,97.1-120.6,97.1-168.7C599.9,167.4,555.4,123,500.6,122.9z M302,430.8
		c-19.9-0.1-36.7-14.9-39.2-34.7c22.4,19.8,56.1,19.8,78.5,0C338.7,415.9,321.9,430.8,302,430.8z M302,391.1
		c-21.9,0-39.7-17.8-39.7-39.7c0-21.9,17.8-39.7,39.7-39.7c21.9,0,39.7,17.8,39.7,39.7C341.7,373.3,323.9,391.1,302,391.1z
		 M311.9,232.2V46.7c27.7,45.4,46.2,95.9,54.5,148.4L302,275.9l-64.5-80.8c8.3-52.6,26.8-103,54.5-148.4v185.6h19.9V232.2z
		 M23.9,222.3c0.2-44,36-79.6,80-79.5c0.1,0,0.2,0,0.3,0c43.2,0.7,83.8,21.1,110.2,55.3l61,76.5l-99-26.1
		c-34.7-9.1-62.4-35.1-73.7-69.1l-18.9,6.3c13.4,40.4,46.3,71.3,87.5,82l105.2,27.7l-86.1,51.7c-26.3,15.8-56.4,24.1-87.1,24.1
		C62.3,371.2,23.9,268.8,23.9,222.3z M56.7,569.7l-11.3,2.6L160,457.7l-14-14L31.4,558.2l2.9-12.7c12-52.1,38.8-99.7,77.2-137
		l20.3-19.7c20.4-3.1,40.2-9.5,58.6-19c0.7,4.6,1.7,9.1,3,13.5c1.9,5.3,2.8,11,2.5,16.6c-1.9,4.8-4.8,9.2-8.4,12.9
		c-7.7,7.4-12.5,17.3-13.6,27.8c1.1,10.6,5.9,20.5,13.6,27.9c3.6,3.7,6.5,8.1,8.4,12.9c0.4,3.2,0.1,6.4-0.8,9.5
		C157.6,530.2,109.5,557.5,56.7,569.7z M393.6,519.6c-1.8,3.9-8.7,7-15.3,9.9c-7.5,2.7-14.2,6.9-19.9,12.5
		c-4.9,6.6-8.4,14-10.4,21.9c-2,6-4.3,13.5-7.3,15c-3.4,1.8-10.9-0.9-17.5-3.2c-6.7-2.8-13.9-4.5-21.2-5c-7.3,0.4-14.4,2.1-21.2,4.9
		c-6.6,2.3-14.1,5-17.5,3.2c-2.9-1.5-5.3-9-7.3-15c-2-7.9-5.6-15.4-10.4-22c-5.6-5.6-12.4-9.8-19.9-12.5c-6.6-3-13.5-6-15.3-9.9
		c-0.6-5.5,0.1-11.1,2.1-16.3c2.9-8.3,3.9-17.1,2.8-25.8c-2.4-8-6.7-15.4-12.5-21.4c-4.5-5.5-9.1-11.2-9.1-15.3
		c0-4.1,4.6-9.8,9.1-15.3c5.8-6,10.1-13.4,12.4-21.4c1.1-8.7,0.1-17.5-2.8-25.8c-2.1-5.2-2.8-10.8-2.1-16.3c1.8-3.9,8.7-7,15.3-9.9
		c6.4-2.5,12.3-6,17.6-10.3c-0.6,3.2-0.8,6.5-0.9,9.7V391c0.1,29,21,53.8,49.7,58.7v80.4h19.9v-80.4c28.6-4.9,49.6-29.6,49.7-58.7
		v-39.7c0-3.2-0.3-6.5-0.9-9.7c5.3,4.4,11.2,7.9,17.6,10.3c6.6,3,13.5,6,15.3,9.9c0.6,5.5-0.1,11.1-2.1,16.3
		c-2.9,8.3-3.9,17.1-2.8,25.8c2.4,8,6.7,15.4,12.5,21.4c4.5,5.5,9.1,11.2,9.1,15.3c0,4.2-4.6,9.8-9.1,15.3
		c-5.8,6-10.1,13.4-12.5,21.4c-1.1,8.7-0.1,17.5,2.8,25.8C393.5,508.5,394.2,514.1,393.6,519.6z M569.6,545.6l2.9,12.7L458,443.7
		l-14,14l114.6,114.6l-11.3-2.6c-52.8-12.1-100.9-39.5-138.4-78.6c-0.9-3.1-1.1-6.3-0.7-9.5c1.9-4.8,4.8-9.2,8.4-12.9
		c7.6-7.4,12.4-17.3,13.6-27.8c-1.1-10.6-5.9-20.5-13.6-27.9c-3.6-3.7-6.5-8.1-8.4-12.9c-0.3-5.7,0.6-11.3,2.5-16.6
		c1.3-4.4,2.3-9,3-13.5c18.4,9.5,38.2,15.9,58.6,19l20.3,19.7C530.8,445.8,557.6,493.4,569.6,545.6z M500.6,371.2
		c-30.7,0-60.8-8.3-87.1-24.1l-86.2-51.7l105.2-27.7c41.2-10.8,74.1-41.6,87.5-82l-18.9-6.3c-11.3,34-39,60-73.7,69.1l-99,26.1
		l61-76.5c26.7-34.4,67.7-54.8,111.2-55.3c43.9,0.1,79.4,35.6,79.5,79.5C580.1,268.8,541.6,371.2,500.6,371.2z"/>
</g>
</svg>
