<?xml version="1.0" encoding="utf-8"?>
<!-- Generator: Adobe Illustrator 22.1.0, SVG Export Plug-In . SVG Version: 6.00 Build 0)  -->
<svg version="1.1" id="Layer_1_1_" xmlns="http://www.w3.org/2000/svg" xmlns:xlink="http://www.w3.org/1999/xlink" x="0px" y="0px"
	 viewBox="0 0 380 469.7" style="enable-background:new 0 0 380 469.7;" xml:space="preserve">
<style type="text/css">
	.st0{fill:#F56C6D;stroke:#F56C6D;stroke-width:2.9298;stroke-miterlimit:10;}
</style>
<path class="st0" d="M9.6,448.4h12.6c0.4,0,0.9,0,1.3-0.1l7.1-1.2c2.7-0.4,4.9-2.2,6-4.7l3.4-8l81.5-29.4c0.1,0,0.1,0,0.2-0.1
	l54.7-23.2l50.9-21.3c13.8-5.8,26.9-13.1,39-21.9l35.7-25.7l9,56.1l-1.4,26.4c-3.3-0.8-6.8,0.2-9.3,2.6c-1.5,1.5-2.5,3.5-2.8,5.6
	l-2.8,19.8l-11.2,9.8c-1.4,1.3-2.3,3.1-2.3,5v2.1c0,3.4,2.7,6.3,6.1,6.6l15.7,1.3c0.2,0,0.4,0,0.5,0c1.4,0,2.7-0.4,3.8-1.2l8.7-6.1
	c1,1.3,2.1,2.6,3.3,3.8c3.4,3.4,7.9,5.2,12.7,5.2c4.4,0,8.6-1.6,11.9-4.5c7.5-6.7,12.6-15.8,14.4-25.6l0.7-4.1
	c0.1-0.4,6.7-36.8,11.6-66.4c4.7-28.1,3.6-44.4,2-67l-0.3-5.1c-1.7-25.3-10.2-52.4-18.4-78.7c-3-9.6-10.1-23.4-21-40.8
	c-14.5-23.1-32.7-43.8-54.1-61.4c-20.3-16.7-42.9-30.1-67.2-39.9c-9.5-3.8-17.6-6.9-24-9.2c-23.2-8.3-86.5-8.5-90.5-8.5l-52-3.4
	c-0.1,0-0.2,0-0.3,0c-3.9,0.1-7.3,2.5-8.9,6c-1.2,2.8-1.1,6,0.4,8.7s4,4.5,7,5.1l22.9,4c-1.5,1.7-2.1,3.9-1.8,6.1
	c0.4,2.6,2.1,4.8,4.6,5.8c2.1,0.8,4.3,0.7,6.3-0.3L97.6,59l40.1,9.3c1.3,0.3,2.6,0.5,3.9,0.7l34,4.6l37.8,22.2
	c-4.5-1.3-9.8-1.3-13-1.2l-3.8-7c-0.4-0.8-1.1-1.3-2-1.6c-0.8-0.2-1.8-0.1-2.5,0.3l-10.9,6c-2.7,0.7-17,4.4-24.9,7.3
	c-7.6,2.8-14.7,10.6-17,18.3c-3.3,11.3-1.8,24.3,3.8,33.7c-6.8,6.3-8.7,16.4-4.2,24.3c3.7,6.5,10.4,10.1,17.4,10.1
	c3.3,0,6.7-0.8,9.9-2.6c5.6-3.2,9.4-8.2,10.6-13.6c0.2,0,0.4,0,0.5,0c2.5,0,5-0.3,7.3-0.8c9.9-2.4,22.1-6.8,29.6-14.6l0.6,2.2
	l-4.6,16.9l-13,21.1c-0.1,0.2-0.2,0.4-0.3,0.7l-21.4,64.2l-21.3,29.4c0,0.1-0.1,0.1-0.1,0.2l-29.6,47.7l-35.7,31
	c-2.2,1.9-3.1,4.8-2.6,7.6c0.2,1.1,0.7,2.1,1.3,3l-56.6,33.9c-0.1,0.1-0.3,0.2-0.4,0.3L5.6,432.5c-0.3,0.2-0.5,0.5-0.7,0.7L3,436.1
	c-1.6,2.4-1.8,5.5-0.4,8.1C4,446.8,6.6,448.4,9.6,448.4L9.6,448.4z M303.4,441.6l-15.7-1.3v-2.1l12.1-10.6c0.6-0.5,1-1.2,1.1-2l3-21
	c0.1-0.7,0.4-1.4,0.9-1.9c1-1,2.6-1.3,3.9-0.6l0.4,0.2l-0.8,14.3c-0.3,6.5,1.1,13,4,18.8L303.4,441.6z M366.1,282.9
	c1.5,22.1,2.6,38-2,65.4c-4.9,29.5-11.5,65.9-11.6,66.3l-0.7,4.1c-1.5,8.4-5.9,16.2-12.3,21.9c-2.1,1.8-4.7,2.9-7.5,2.9
	c-3,0-5.9-1.2-8-3.3c-6.1-6.1-9.3-14.5-8.9-23.2l2.5-48c0-0.2,0-0.5,0-0.7l-9.6-59.7l11.6-8.4l-3.9-5.4l-53.3,38.4
	c-11.7,8.4-24.4,15.6-37.7,21.1l-50.9,21.3l-5.2,2.2l-21.2-22.3l15.7-7c0.3-0.1,0.6-0.3,0.9-0.6l43.2-39.1
	c6.4-5.8,13.4-11.3,20.5-16.2l16.4-11.2c6.4-4.3,11.6-10.2,15.2-17l1-1.9c1.1-2,2-4.1,2.7-6.2c6.6,1.2,23.6,4.1,40.4,4.1
	c5.8,0,11.6-0.3,16.9-1.2c15.9-2.5,32.1-12,39.4-16.7c2.9,12,5.2,23.8,5.9,35.2L366.1,282.9z M246.3,210
	c6.6,6.2,11.1,14.5,12.6,23.4c1.5,8.9,0,18.2-4.3,26.1l-1,1.9c-3.1,5.8-7.7,10.9-13.1,14.6L224,287.2c-7.4,5.1-14.6,10.7-21.3,16.8
	L160,342.8l-17.6,7.8l2.2-3l41.4-48c0.1-0.1,0.2-0.3,0.3-0.4l28.1-45.8c2.4-3.9,4.5-7.9,6.3-12.1l16.9-39.5L246.3,210z M265.4,232.8
	c3.9,0.4,9.9,0.8,16.9,0.8c9.6,0,20.8-0.8,30.7-3.6c16.5-4.7,32-12.3,38.8-15.9c2.2,7.3,4.4,14.6,6.3,21.8
	c-5.6,3.7-22.7,14.4-38.7,16.9c-19.1,3-45.2-1.1-54.4-2.7C266.1,244.4,266.3,238.5,265.4,232.8L265.4,232.8z M347.6,200.7
	c0.7,2.3,1.4,4.6,2.2,6.9c-5.8,3.1-21.9,11.3-38.6,16c-17.4,4.9-40.4,3.1-47.4,2.3c-2.5-7.9-7-15.1-13-20.7l-33.8-31.4l3.5-12.9
	c9.2,2.4,19.1-1.2,24.6-9.3l1.4-2c6.5-9.5,4.7-22.3-3.6-29.9l3.5-5.8l51.6,9.6c11,11.7,20.9,24.4,29.4,38
	C338,178.4,344.8,191.6,347.6,200.7L347.6,200.7z M224.7,131.9c0.3-1.5,0.5-3.4,0.7-5.7l12.3-2.3c6.5,5.4,8.1,14.9,3.3,21.9l-1.4,2
	c-4.1,6.1-11.8,8.5-18.6,6.2l-1.8-7.1C221.5,142.3,223.8,137.2,224.7,131.9L224.7,131.9z M177.2,67.1l-34.7-4.7
	c-1.1-0.2-2.2-0.4-3.3-0.6l-41.3-9.5c-0.8-0.2-1.6-0.1-2.3,0.3L72.4,64.9c-0.2,0.1-0.5,0.1-0.7,0c-0.4-0.1-0.5-0.4-0.5-0.7
	c0-0.2,0-0.5,0.3-0.8l4.6-3.8c1-0.8,1.4-2.2,1.1-3.4c-0.3-1.2-1.4-2.2-2.6-2.4l-29.9-5.2c-1-0.2-1.9-0.8-2.3-1.7
	c-0.5-0.9-0.5-1.9-0.1-2.9c0.5-1.1,1.6-1.9,2.8-2l51.9,3.4c0.1,0,0.1,0,0.2,0c0.7,0,66,0.1,88.4,8.1c6.3,2.2,14.3,5.3,23.7,9.1
	c23.6,9.5,45.7,22.6,65.4,38.9c5.3,4.3,10.3,8.9,15.2,13.6l-44-8.2l-67.5-39.5C178,67.3,177.6,67.2,177.2,67.1L177.2,67.1z
	 M240.1,111.3l-3.7,6.1l-10.8,2c-0.1-7-1.5-14.8-6.2-20.2L240.1,111.3z M162.9,177.7c-6.4,3.6-14.5,1.4-18.2-5
	c-2.9-5-1.7-11.4,2.4-15.7c5.7,6.1,14.3,10.5,23,12.1C169.1,172.4,166.6,175.6,162.9,177.7L162.9,177.7z M183,162.5
	c-11.2,2.7-26.8-3.2-33.3-12.8c-5.4-8-7-19.7-4-29.9c1.7-5.7,7.4-11.9,13-14c0.2-0.1,0.4-0.2,0.6-0.2c2.5,9.6,11.2,36.2,34.2,53.7
	C190.3,160.5,186.8,161.6,183,162.5L183,162.5z M200.5,156.2c-23.7-16.3-32.6-43.9-34.9-52.7c8.1-2.5,17.5-4.9,17.6-4.9
	c0.3-0.1,0.5-0.2,0.8-0.3l8.4-4.6l3.2,5.9c0.6,1.1,1.9,1.8,3.2,1.7c5.2-0.4,13.5,0,15.4,2.1c6.7,7.2,4.6,22.8,3.8,27.4
	c-0.8,4.8-3.1,9.7-5.4,14.4C210.6,149.3,206.4,153.1,200.5,156.2L200.5,156.2z M93.1,372.8l36.1-31.4c0.3-0.2,0.5-0.5,0.6-0.8
	l29.8-48l21.5-29.7c0.2-0.3,0.3-0.6,0.5-0.9l21.4-64.3l10.9-17.8l18.3,17l-17.8,41.7c-1.7,3.9-3.6,7.7-5.8,11.3l-27.9,45.5
	l-41.3,47.9c-0.1,0.1-0.1,0.1-0.2,0.2l-20.1,27.3c-1.1,1.5-2.5,2.8-4,3.8l1.5-2.7c0.7-1.2,0.5-2.8-0.4-3.9s-2.5-1.4-3.8-0.8
	l-17.9,7.7c-0.5,0.2-0.9,0.1-1.2,0c-0.2-0.1-0.6-0.4-0.7-0.9C92.6,373.6,92.7,373.1,93.1,372.8L93.1,372.8z M8.5,439.8l1.6-2.4
	l24.3-19.4l60.3-36.2c0.8-0.1,1.6-0.3,2.4-0.6l10-4.3c0,1.4,0.5,2.7,1.5,3.8c1.1,1.3,2.7,2,4.3,2c0.8,0,1.6-0.2,2.3-0.5
	c3.7-1.6,6.8-4.1,9.2-7.3l9.9-13.5l6.6-2.9l21.1,22.2l-42.9,18.2l-82.8,29.8c-0.9,0.3-1.6,1-1.9,1.8l-4,9.3c-0.2,0.4-0.5,0.7-1,0.8
	l-7.1,1.2c-0.1,0-0.1,0-0.2,0H9.6c-0.7,0-1-0.4-1.1-0.7C8.3,440.8,8.1,440.3,8.5,439.8L8.5,439.8z"/>
</svg>
