<?xml version="1.0" encoding="utf-8"?>
<!-- Generator: Adobe Illustrator 22.1.0, SVG Export Plug-In . SVG Version: 6.00 Build 0)  -->
<svg version="1.1" id="Layer_1_1_" xmlns="http://www.w3.org/2000/svg" xmlns:xlink="http://www.w3.org/1999/xlink" x="0px" y="0px"
	 viewBox="0 0 389.7 461.6" style="enable-background:new 0 0 389.7 461.6;" xml:space="preserve">
<style type="text/css">
	.st0{fill:#F56C6D;stroke:#F56C6D;stroke-width:3;stroke-miterlimit:10;}
</style>
<path class="st0" d="M383.1,386.5c0.2,0.1,0.5,0.1,0.7,0.1c1.6,0,3.1-1.1,3.6-2.7c1.3-4.3,0.8-8.5-1.4-12.3
	c-2.6-4.4-7.3-7.7-12-10.1l2.5-1.3c2.6-1.5,4.3-4.2,4.4-7.2c0.2-3-1.1-5.9-3.5-7.7c-2.2-1.7-4.9-2.3-7.4-1.7l-22.3,4.3l-45.4-50.4
	c-0.1-0.1-0.1-0.2-0.2-0.2c-3-2.8-4.7-6.8-4.7-11V204c0-9.9-5.2-18.8-13.6-23.2c-4.4-2.3-8.9-3.2-13.8-2.5l0-0.1l-47.7-10.6v-18.4
	c15.2-14.6,25.4-40.2,25.4-62.6c0-19-7.6-35.9-19.5-46.9c0.4-1.6,0.8-3.3,0.8-5.2c0-18.2-14.8-33-33-33s-33,14.8-33,33
	c0,2,0.4,3.6,0.8,5.1c-11.9,11-19.6,28-19.6,47c0,22.4,10.2,48,25.4,62.6v18.4L122,178.1l0,0.1c-4.8-0.6-9.4,0.2-13.8,2.5
	c-8.4,4.5-13.6,13.3-13.6,23.2v82.4c0,4.1-1.7,8.1-4.7,10.9c-0.1,0.1-0.1,0.1-0.2,0.2l-47.1,51.1l-18-3.1c-2.6-0.6-5.3,0-7.4,1.7
	c-2.4,1.8-3.7,4.7-3.5,7.7c0.2,2.5,1.4,4.8,3.3,6.4c-5.2,1.8-10.5,4.6-13.3,9c-1.8,2.8-3.4,7.5-0.8,13.9c0.6,1.5,2,2.4,3.5,2.4
	c0.2,0,0.5,0,0.7-0.1l34.7-6.9c-8.7,4.5-21.3,13.9-21.7,30.3c-0.2,8.6,5.2,16.3,16,22.7c7.2,4.2,15.2,7,23.7,8.3
	c-1.7,2.7-2.4,6-1.7,9.3c1.4,5.9,7,10,13.2,10c0.9,0,1.8-0.1,2.6-0.3l64.4-12.4c7,0.1,104.2,1.8,159.9,2.3
	c26.7,0.2,46.9-4.3,60.2-13.4c10.2-7,16.1-17,16.1-27.4c0.1-10.3-11.3-19.5-14.8-22.1c-4.4-3.2-9.2-6-14.7-8.4
	c1.8,0.6,3.6,1.1,5.5,1.5L383.1,386.5z M280.3,187.5c5.9,3.1,9.6,9.5,9.6,16.5v82.4c0,6.2,2.6,12.1,7,16.3l46.7,51.9
	c0.9,1,2.2,1.4,3.5,1.2l24.5-4.8c0.4-0.1,0.9,0,1.2,0.3c0.5,0.4,0.6,1,0.6,1.2c0,0.3-0.1,0.8-0.6,1.1l-7.9,4.3
	c-2.7-0.8-4.7-1.3-5.4-1.4l-1.5,7.4c4.7,1,17.7,5,21.5,11.5c0.5,0.9,0.9,1.8,1,2.8l-28.6-5.7c-8.4-1.7-16.1-6.3-21.6-12.9
	c-0.2-0.3-0.5-0.5-0.9-0.8c-26.9-17.4-56-38.1-59.2-43.3c-4.2-16.9-10.8-44.5-11.1-47.8c-2-22,0.4-43.7,7.2-64.7l5.7-17.6
	C274.9,185.4,277.6,186,280.3,187.5L280.3,187.5z M196,9.1c13.9,0,25.3,11.3,25.4,25.2c-7.5-4.9-16.2-7.8-25.4-7.8
	s-17.9,2.8-25.4,7.8C170.7,20.3,182.1,9.1,196,9.1L196,9.1z M196,34.1c21.6,0,39.7,18.6,43.4,43c-9.3-15.7-25.3-25.6-43.4-25.6
	c-18.2,0-34.4,10.6-43.7,27.3C155.5,53.5,173.9,34.1,196,34.1z M153,98.9c4.8-23.1,22.7-39.8,43-39.8c20.9,0,38.6,15.8,43.3,38.5
	c-4.2,27.1-22.7,56.1-43.3,56.1C175.8,153.6,157.6,125.6,153,98.9L153,98.9z M196,161.2c6.6,0,12.9-2.2,18.8-6v32.3
	c0,10.3-8.4,18.8-18.8,18.8c-10.3,0-18.8-8.4-18.8-18.8v-32.3C183.1,159,189.4,161.2,196,161.2z M196,213.8
	c14.5,0,26.3-11.8,26.3-26.3v-12.2l42.1,9.4l-5.2,16.3c-5.3,16.4-8,33.2-8.2,50.2l-5.7,47.1h-98.5l-5.7-46.3
	c-0.1-17.3-2.9-34.4-8.2-51l-5.2-16.3l42.1-9.4v12.2C169.7,202,181.5,213.8,196,213.8L196,213.8z M240.9,332h-91.3l-2-26.2h96.8
	L240.9,332z M137.3,283.1l2.4,19.3l2.5,33.1l-3.4,15.3L57.2,374c2.4-1.4,4.7-3,6.8-4.8l4.7-4.1c13.3-8.8,55.7-37.5,59.7-45.9
	c0.1-0.2,0.2-0.5,0.2-0.7C129.4,315.4,134.1,296.8,137.3,283.1L137.3,283.1z M10,374.3c3.9-6.1,18.2-8.2,22.9-8.5l-0.4-7.5
	c-0.5,0-1.9,0.1-3.9,0.4l-6.7-3.2c-0.5-0.3-0.6-0.8-0.6-1.1c0-0.3,0-0.8,0.6-1.3c0.4-0.3,0.8-0.4,1.2-0.3c0.1,0,0.1,0,0.2,0
	l20.1,3.5c1.3,0.2,2.6-0.2,3.4-1.2l48.4-52.6c4.5-4.2,7-10.2,7-16.4V204c0-7.1,3.7-13.4,9.6-16.5c2.7-1.4,5.4-2,8.2-1.8l5.7,17.6
	c6.8,21,9.2,42.8,7.2,64.7c-0.3,3.3-7.1,31.1-11.4,48.3c-3.1,5-31.2,25.5-57.1,42.8c-0.1,0.1-0.2,0.2-0.4,0.3l-4.9,4.2
	c-4.9,4.2-10.8,7.1-17.2,8.4l-32.8,6.6C8.9,376.4,9.5,375.2,10,374.3L10,374.3z M39.9,426c-8.3-4.9-12.4-10.3-12.3-16
	c0.5-19,24.1-26.6,24.3-26.6l91.1-25.9c1.3-0.4,2.4-1.5,2.7-2.8l3.4-15.1h92.4l5.1,15.4c0.4,1.2,1.3,2.1,2.5,2.4l51.9,15.3
	l-17.2,0.6l-28.2-1.3c-3.7-0.2-7.1,1.3-9.5,4.1l-9.4,11.1c-0.9,1.1-2.3,1.6-3.7,1.5l-105.2-10.9c-0.4,0-0.7,0-1.1,0l-53.4,10.3
	l1.4,7.4l10.7-2.1c-2.3,6.5-3.8,15.3-3.3,21.8c0.6,7.7,2.2,13.4,3.6,17c-2.8,0.4-5.5,0.7-8,1C64.4,435.1,50.9,432.4,39.9,426
	L39.9,426z M239.8,411.1c-23.6,4.7-101.2,14.7-146.4,20.4c-1.2-2.7-3.1-8.2-3.8-16.7c-0.8-10,3.1-19.4,4.7-22.9l33.2-6.4l104.7,10.8
	c3.9,0.4,7.7-1.1,10.2-4.1l9.4-11.1c0.8-1,2.1-1.5,3.4-1.5l28.4,1.3c0.1,0,0.2,0,0.3,0l39.4-1.4c1.7,0,3.2,1.2,3.3,2.9
	c0.1,1.4-0.7,2.8-2.1,3.3C311.7,390.2,267.5,405.5,239.8,411.1L239.8,411.1z M138.1,439.9c-0.3,0-0.5,0-0.8,0.1l-64.8,12.4
	c-3.2,0.6-6.4-1.2-7-4.1c-0.6-2.5,1-5,3.8-5.9l9-1.5c0.2,0,0.3,0,0.5-0.1c39.9-5,135.7-17.1,162.6-22.5c19.8-4,47.1-12.5,67-19.2
	c1.9,3.1,4.9,9.8,4.9,19.4c0,9.1-4.6,19.3-6.6,23.4c-2.7,0.1-5.5,0.1-8.4,0.1C240.9,441.7,139.1,439.9,138.1,439.9L138.1,439.9z
	 M366.9,408.9c0,4.6-1.8,13.6-12.9,21.2c-9.1,6.3-22.1,10.1-38.8,11.5c2.5-5.7,5.6-14.5,5.6-22.9c0-10.1-2.9-17.5-5.2-21.9
	c4.5-1.5,8.4-2.9,11.4-4c4.4-1.6,7.3-5.8,7.1-10.4c8.4,2.8,15.2,6.2,21,10.5C362.3,398.1,367,404.5,366.9,408.9L366.9,408.9z
	 M325.9,372.2l-72.7-21.4l-5.1-15.3l4.3-32.9h0c0,0,0,0,0,0l2.4-19.4c3.1,13.6,7.7,31.9,8.4,34.9c0.1,0.2,0.1,0.5,0.3,0.7
	c4.1,8.7,47.5,37.3,61.6,46.3c4.1,4.8,9.2,8.7,14.9,11.4C335.6,374.8,331,373.4,325.9,372.2z"/>
</svg>
