<?xml version="1.0" encoding="utf-8"?>
<!-- Generator: Adobe Illustrator 22.1.0, SVG Export Plug-In . SVG Version: 6.00 Build 0)  -->
<svg version="1.1" id="Layer_1_1_" xmlns="http://www.w3.org/2000/svg" xmlns:xlink="http://www.w3.org/1999/xlink" x="0px" y="0px"
	 viewBox="0 0 393.5 469.7" style="enable-background:new 0 0 393.5 469.7;" xml:space="preserve">
<style type="text/css">
	.st0{fill:#F26C6D;stroke:#F26C6D;stroke-width:2.9513;stroke-miterlimit:10;}
</style>
<path class="st0" d="M24.5,429.8c5.2,2.5,11,5.3,17.5,9.1c8.1,4.7,25.7,5.8,48.2,4.8c-5,2.7-7.8,8.4-6.5,14.2
	c1.3,6,6.7,10.1,12.6,10.1c0.9,0,1.8-0.1,2.7-0.3l60.8-13.1c7.5,0.3,98.8,3.8,151.3,3.8c57,0,72-32.2,72-49.3
	c0-6.8-4.8-13.9-14.1-21.3c-9.3-7.3-20.2-12.5-32.2-15.5l-90.1-25.3v-15.5h76.7c5.3,0,9.9-3.6,11.1-8.8l2-8.6
	c0.6-2.5,0.3-5.2-0.9-7.6l-57.9-117.9c-1.3-2.8-3.8-4.9-6.9-5.5l-52.5-10.2v-18.2c16-15,26.8-41.7,26.8-65.2
	c0-19.6-7.9-37.1-20.2-48.5c0.4-1.7,0.8-3.5,0.8-5.4c0-18.7-15.2-34-34-34s-34,15.2-34,34c0,2.1,0.4,3.8,0.9,5.3
	c-12.3,11.4-20.3,28.9-20.3,48.5c0,23.5,10.8,50.2,26.8,65.2v18.2l-52.5,10.2c-3,0.6-5.6,2.6-6.9,5.5L47.9,306.5
	c-1.1,2.3-1.5,5-0.9,7.6l2,8.5c1.2,5.2,5.8,8.8,11.1,8.8h76.7v15.5L35.3,375.1c-0.2,0.1-0.5,0.2-0.7,0.3C31.3,377,2.2,392,2.2,407.2
	C2.2,419,11.5,423.5,24.5,429.8L24.5,429.8z M79.8,436.4c-2.6-3.2-9.4-12.3-9.4-21.7c0-9.4,4.2-17.8,6.1-21.1l31.7-3.5l97.8,18.1
	c3.7,0.7,7.5-0.5,10.1-3.1l9.7-9.7c0.8-0.8,2-1.2,3.2-1.1l26.6,3.3c0.1,0,0.2,0,0.3,0l37.3,1.6c1.5,0.1,2.7,1.3,2.7,2.8
	c0,1.3-0.9,2.4-2.1,2.7c-12.5,3.3-55.3,14.4-81.7,17.5c-5.4,0.6-13.1,1.7-22.1,2.9C162,429.2,113.5,435.9,79.8,436.4z M159.6,447
	c-0.3,0-0.6,0-0.9,0.1l-61.2,13.2c-2.9,0.6-5.7-1.2-6.4-4.1c-0.6-2.7,0.9-5.4,3.6-6.3l27.5-8.7c21.9-2.1,45.7-5.3,68.8-8.5
	c8.9-1.2,16.6-2.3,22-2.9c22.8-2.7,56.2-10.8,75.2-15.7c3,2.4,10.1,8.9,10.1,16.5c0,8.1-4.8,16.6-7,20
	C236.3,450,160.5,447,159.6,447L159.6,447z M270.7,191.7c0,0.1,0.1,0.1,0.1,0.2l58,118c0.4,0.8,0.5,1.7,0.3,2.5l-2,8.6
	c-0.4,1.7-1.9,2.9-3.7,2.9H208.5c-0.4,0-0.7-0.1-1-0.3l-12-7.5V250c2.6,0.2,4.7,2.1,5.2,4.7l7.6,45.3c0.6,3.7,3.8,6.3,7.5,6.3
	c0.3,0,0.6,0,1-0.1l56.4-7.1l18.3,3.7l1.5-7.4l-17-3.4l-21.8-50.8l-10.6-55.7l25.8,5C269.9,190.7,270.4,191.1,270.7,191.7
	L270.7,191.7z M253.1,258.3l14.6,34l-17,2.1L253.1,258.3z M165.3,35.7c0-14.5,11.8-26.4,26.4-26.4c14.5,0,26.4,11.8,26.4,26.4
	c0,0,0,0,0,0c-7.8-5.2-16.8-8.1-26.4-8.1S173.1,30.5,165.3,35.7C165.3,35.7,165.3,35.7,165.3,35.7L165.3,35.7z M191.7,35.1
	c22.6,0,41.4,19.6,45.1,45.2c-9.6-16.5-26.2-26.9-45.1-26.9c-19,0-35.8,11.1-45.3,28.7C149.4,55.6,168.6,35.1,191.7,35.1z
	 M147.1,102.3c4.9-24,23.6-41.3,44.6-41.3c21.7,0,40,16.4,44.8,39.9c-4.3,28.1-23.6,58.1-44.8,58.1
	C170.7,159,151.8,129.9,147.1,102.3z M191.7,166.6c6.7,0,13.1-2.2,18.9-5.9v32.4c0,10.4-8.5,18.9-18.9,18.9
	c-10.4,0-18.9-8.5-18.9-18.9v-32.4C178.6,164.4,185,166.6,191.7,166.6z M191.7,219.6c14.6,0,26.5-11.9,26.5-26.5v-12.5l17.2,3.3
	l11.2,58.6l-3.6,52.8l-27.3,3.4l-7.6-45.3c-1.1-6.4-6.6-11.1-13.1-11.1h-3.3h-3.3c-6.5,0-12,4.7-13.1,11.1l-7.6,45.3l-27.3-3.4
	l-3.6-52.8l10.8-58.5l17.6-3.4v12.5C165.1,207.7,177,219.6,191.7,219.6L191.7,219.6z M130.2,258.3l2.5,36.1l-17-2.1L130.2,258.3z
	 M56.3,320.9l-2-8.5c-0.2-0.8-0.1-1.7,0.3-2.5l58-118c0-0.1,0.1-0.1,0.1-0.2c0.2-0.6,0.8-1,1.4-1.1l25.5-5l-10.3,55.7l-21.8,50.8
	l-17,3.4l1.5,7.4l18.3-3.7l56.4,7.1c4.1,0.5,7.7-2.2,8.4-6.3l7.6-45.3c0.4-2.6,2.6-4.5,5.2-4.7V316l-12,7.5c-0.3,0.2-0.6,0.3-1,0.3
	H60C58.3,323.8,56.7,322.6,56.3,320.9L56.3,320.9z M174.9,331.4c1.8,0,3.5-0.5,5-1.4l11.8-7.4l11.8,7.4c1.5,0.9,3.2,1.4,5,1.4H239
	v15.2h-94.7v-15.2H174.9z M37.7,382.3l101.5-28.2h105.1l90.5,25.5c11.1,2.8,21.1,7.6,29.5,14.2c7.2,5.7,11.2,11.1,11.2,15.3
	c0,14.4-13.5,41.7-64.4,41.7c-3.5,0-7.2,0-11,0c2.7-5,5.8-12.5,5.8-20.1c0-8-4.8-14.7-9-18.9c2.7-1.1,4.9-3.2,5.9-5.9
	c3.5-1.4,10.1-3.6,14.8-3.4l0.3-7.6c-5.1-0.2-11.3,1.5-15.3,3c-1.6-3.5-4.9-5.9-9-6.1l-37.1-1.6l-26.5-3.3c-3.5-0.4-7,0.7-9.4,3.2
	l-9.7,9.7c-0.9,0.9-2.1,1.3-3.4,1L109,382.6c-0.4-0.1-0.7-0.1-1.1,0l-51.2,5.7l0.8,7.5l9.9-1.1c-0.2,0.4-0.4,0.8-0.6,1.3
	c-1.9,4.4-4.1,11.3-4.1,18.8c0,8.5,4,16.4,7.5,21.7c-11.3-0.3-20.1-1.5-24.6-4.1c-6.8-3.9-12.7-6.8-18-9.4c-12.8-6.2-18-9-18-15.8
	C9.8,399.7,26,388.2,37.7,382.3L37.7,382.3z"/>
</svg>
