<?xml version="1.0" encoding="utf-8"?>
<!-- Generator: Adobe Illustrator 22.1.0, SVG Export Plug-In . SVG Version: 6.00 Build 0)  -->
<svg version="1.1" id="Layer_1_1_" xmlns="http://www.w3.org/2000/svg" xmlns:xlink="http://www.w3.org/1999/xlink" x="0px" y="0px"
	 viewBox="0 0 380 469.7" style="enable-background:new 0 0 380 469.7;" xml:space="preserve">
<style type="text/css">
	.st0{fill:#F56C6D;stroke:#F56C6D;stroke-width:2.8121;stroke-miterlimit:10;}
</style>
<path class="st0" d="M327.2,253.4l11.2-47.5c0.2-0.9,0.1-1.9-0.4-2.8c-1.9-3.1-46.6-77.2-104.5-86.2c0,0,0,0,0,0l-30-4.5
	c-8-1.2-16.2,0.4-23.1,4.5l-7.2-8c1.6-1.5,3.1-3.2,4.5-5c9.4-11.9,8-23.7,4.6-34.8l6.2-8.5c1.1-1.5,0.9-3.7-0.5-5l-12.2-11.3
	c-0.9-4.2-4.4-17.8-11.5-26.9c-6.9-8.8-20-15.1-31.2-14.9c-17.5,0.4-35.2,8.7-45.2,21.3c-4,5.1-7,11.1-9,17.8
	c-7.5,3.2-13.4,9-16.8,16.4c-3.6,8-4,16.8-0.9,25c4.8,13,17.1,21.1,30.2,21.3c9.1,11.9,20.9,18.9,33.9,20.6l13.7,16.7l-10.5,6.3
	c-0.2,0.1-0.3,0.2-0.5,0.3l-27.5,23.1c-0.3,0.2-0.5,0.5-0.7,0.8c-15.6,24.1-25.8,50.7-30.3,79l-6.6,42c-1.3,8.4-0.1,16.9,3.6,24.6
	c2.6,5.4,6.3,10.1,11,14l43.6,36l26,59.5l-63.3,16.1c-4.9,1.4-8.4,6-8.4,11.1c0,6.4,5.2,11.6,11.6,11.6h80.1c7,0,13.8-3,18.6-8.1
	c4.8-5.1,7.3-12.1,6.8-19.2l-0.3-4.2c0-0.3-0.1-0.5-0.1-0.8l-4.2-14.5l70,24.8c5.7,2,11.7,3,17.6,3c11.3,0,22.4-3.6,31.2-10.6
	c0.7-0.5,1.4-1.1,2-1.7c10.1-8.9,16.6-21.1,18.3-34.4c2.6-20.8,1.5-41.7-3.4-62.2l-12.8-54l15.9-30.2
	C327,254,327.1,253.7,327.2,253.4L327.2,253.4z M180.5,58.9l-5.4,7.4c-0.7,1-0.9,2.2-0.5,3.4c3.6,11.1,4.6,20.4-2.7,29.7
	c-5.2,6.6-12.5,11.4-23.4,15.5c-0.5,0.2-1.1,0.4-1.6,0.5c13.7-16.7,21.9-43.8,23.4-66L180.5,58.9z M68.3,80.4
	c-2.4-6.3-2.1-13.2,0.7-19.3C71.8,55,76.8,50.3,83.1,48c2.9-1.1,5.8-1.6,8.8-1.6c3.6,0,7.1,0.8,10.5,2.3c6.1,2.8,10.8,7.8,13.2,14.2
	c4.9,13-1.8,27.6-14.8,32.5C87.7,100.1,73.1,93.5,68.3,80.4z M100.3,103.3c1-0.3,2.1-0.6,3.1-1c8.2-3.1,14.7-9.1,18.4-17.1
	c3.6-8,4-16.8,0.9-25s-9.1-14.7-17.1-18.4c-5.7-2.6-11.8-3.5-17.8-2.7c1.6-4,3.6-7.6,6.1-10.7c8.6-10.9,24.1-18.1,39.5-18.5
	c8.8-0.2,19.8,5.1,25.1,12c0.8,1,1.6,2.2,2.3,3.3c7.3,20.4-3.8,74.9-27.2,92.6C120.9,118.5,109.4,113.4,100.3,103.3z M135.3,125.3
	c5.2-0.4,10.4-1.5,15.7-3.5c6.5-2.4,11.8-5.1,16.3-8.2l6.5,7.2l-28.3,17L135.3,125.3z M132.6,154.3l51.2-30.8
	c5.5-3.3,12.1-4.6,18.5-3.7l28.3,4.3l31.9,48.2l21.6,66.5l-73.1,33.9l-37.6-35.5c0.4-7.7,1.6-34.5-2.5-43.1
	c-3.9-8.2-32.8-26.2-45.4-33.8L132.6,154.3z M231.8,344c1.2,1.1,1.9,2.6,1.9,4.2c0,1.6-0.7,3.1-1.9,4.2l-3.5,3.2l-4.6-8.6l2.5-10.6
	l1.9-1.6C227.8,338.2,229.1,341.6,231.8,344L231.8,344z M220.5,331.6c-0.6,0.5-1,1.2-1.2,1.9l-3.1,13.1c-0.2,0.9-0.1,1.8,0.3,2.6
	l5.7,10.8c-0.3,0.1-0.6,0.1-0.9,0.1l-7.2,0.4c-1.9,0.1-3.7,0.6-5.4,1.4l-11.2,5.8c-1.9,1-4.1,0.8-5.8-0.4l-1.2-0.9l-64.8-123.9
	l-6.6,3.5l12.3,23.5L93,267.9c-1.3-6.7-1.8-13.6-1.2-20.6c0.6-7.3,3.7-14.3,8.7-19.7c8.4-9,21-12.7,32.9-9.5
	c8.2,2.2,15.9,6.5,22.1,12.3l86.7,81.9L220.5,331.6z M146.5,298.7l13.7,46.4l-11.3-8l-22.4-17.7c-10.4-8.2-19-18.3-25.6-29.9
	c-2.5-4.5-4.5-9.1-6-13.9l40.3,1.8L146.5,298.7z M170.2,352.1l-5.6-19l12.5,23.8L170.2,352.1z M247.9,307.3L217,278.2l64.4-29.9
	l-0.9,2c-0.1,0.2-0.2,0.5-0.2,0.7L269.1,296l-15.8,6.8c-0.4,0.2-0.7,0.4-1,0.6L247.9,307.3z M289.6,230.9l-6-18.6l10.9,8.3
	L289.6,230.9z M73.4,314.7c-3-6.3-4.1-13.3-3-20.2l6.6-42c4.3-27.1,14-52.6,28.8-75.6l13.7-11.5c17.8,10.6,42.3,26.7,44.7,31.9
	c2.2,4.7,2.5,20.5,2.1,33.1l-5.6-5.3c-7.1-6.7-15.8-11.6-25.3-14.1c-14.6-3.9-30.1,0.5-40.4,11.6c-6.1,6.6-9.9,15.2-10.7,24.2
	c-1.4,16.2,2.1,32.3,10.1,46.4c7,12.4,16.3,23.2,27.5,32.1l22.4,17.7c0.1,0,0.1,0.1,0.2,0.1l42.8,30.4c4,2.9,9.2,3.2,13.6,1
	l11.2-5.8c0.7-0.4,1.5-0.6,2.3-0.6l7.2-0.4c3-0.1,5.8-1.3,8.1-3.3l7.1-6.3c2.8-2.5,4.4-6.1,4.4-9.9c0-3.8-1.7-7.3-4.5-9.8
	c-1.4-1.2-1.2-2.7-1-3.3s0.7-2,2.5-2.4c1.2-0.2,2.4,0.2,3.2,1.2l12.5,15.8c1.3,1.7,1.6,3.9,0.7,5.8l-9,19.3
	c-0.6,1.4-1.8,2.4-3.3,2.9L193,394.5c-1.4,0.5-3,0.4-4.4-0.3l-62.3-31.8l-43.9-36.3C78.5,323,75.5,319.1,73.4,314.7L73.4,314.7z
	 M180.3,453c-3.4,3.7-8.1,5.7-13.2,5.7H87.1c-2.3,0-4.1-1.8-4.1-4.1c0-1.8,1.2-3.4,2.9-3.9l67.4-17.1c1.1-0.3,2-1,2.4-2
	c0.5-1,0.5-2.1,0.1-3.1l-23.9-54.8l41.3,21l11.8,40.9l0.3,3.9C185.5,444.5,183.8,449.3,180.3,453L180.3,453z M182.3,399.4l3,1.5
	c1.9,0.9,3.9,1.4,6,1.4c1.4,0,2.9-0.2,4.2-0.7l4.1-1.4c2.8,4.3,9.2,13.1,18.2,21.8l-32.2-11.4L182.3,399.4z M319.8,399.6
	c-1.4,11.5-7,22.1-15.8,29.7c-0.6,0.5-1.2,1-1.7,1.5c-11.4,9-27.3,11.5-41.7,6.4l-18.7-6.6c-17.1-8.9-29.8-25.4-35-32.8l37.9-12.9
	c3.4-1.1,6.1-3.6,7.6-6.9l9-19.3c1.3-2.9,1.6-6.1,0.8-9l9.3-2.7c8.2-2.4,14.9-8.6,18-16.6l5.6-14.5h15.7l5.8,24.2
	C321.2,359.7,322.2,379.7,319.8,399.6L319.8,399.6z M309,308.4h-10.6l7.3-13.9L309,308.4z M290.2,307.6c-0.1,0.1-0.1,0.3-0.2,0.4
	l-7.6,19.6c-2.3,5.8-7.2,10.4-13.2,12.1l-11.1,3.3l-10.9-13.8c-2-2.6-5-4-8.2-4.1l17.8-15.7l16.9-7.3c1.1-0.5,1.9-1.4,2.2-2.5
	l11.5-46.5l23.9-50.9l-6.8-3.2l-6.9,14.6l-18.2-13.9l-9.1-28.1l-6.3-28.1l-7.3,1.6l1.5,7l-17.1-25.9c46.4,13.1,83.8,70.1,89.6,79.4
	L320,251.2L290.2,307.6z"/>
</svg>
