<?xml version="1.0" encoding="utf-8"?>
<!-- Generator: Adobe Illustrator 22.1.0, SVG Export Plug-In . SVG Version: 6.00 Build 0)  -->
<svg version="1.1" id="Layer_1_1_" xmlns="http://www.w3.org/2000/svg" xmlns:xlink="http://www.w3.org/1999/xlink" x="0px" y="0px"
	 viewBox="0 0 393.5 469.7" style="enable-background:new 0 0 393.5 469.7;" xml:space="preserve">
<style type="text/css">
	.st0{fill:#F26C6D;stroke:#F26C6D;stroke-width:3;stroke-miterlimit:10;}
</style>
<path class="st0" d="M11.1,423.8h66.2c9.7,0,17.5-7.6,17.9-17.2l0.2-4.3c0.1-2.3-0.3-4.5-1-6.7l-7.9-22.4l-3-159.2
	c16.3-15,39.6-37.9,54.9-53c8.4-8.3,19.6-13.3,31.4-14l0.5,0c6.1-0.4,12.1-1.7,17.8-4.1c10.8-4.5,20-12.4,26-22.4l7.5-12.4
	c5,0.8,18.7,3.7,27.3,13.5c10.9,12.4,48.9,50.9,54.2,56.3c0.6,2.4,1.4,4.7,2.3,7l3.8,9.5c-5.1,5.5-9.1,11.9-11.8,19
	c-2.1-0.5-4.2-0.7-6.3-0.7c-15.7,0-28.6,12.8-28.6,28.6c0,15.7,12.8,28.6,28.6,28.6c5.7,0,11.3-1.7,16-4.9
	c4.8,4.7,10.8,8.3,17.8,10.5c1.8,0.6,3.6,1,5.3,1.4l-1,102.6l-20.2,1.4c-0.2,0-0.3,0-0.5,0.1l-25.1,5.8c-0.2,0-0.4,0.1-0.5,0.2
	c-3.1,1.3-4.9,4.7-4.2,8c0.6,3,3.1,5.2,6.1,5.6l22.8,2.7l-15.6,6c-3.1,1.2-5.1,4.2-5.1,7.4c0,4.4,3.6,8,8,8h55.1
	c5.7,0,11-2.2,15-6.2l0.9-0.9c3.4-3.4,5.6-8,6.1-12.8l5.8-55.7c0.6-5.9,0.9-11.8,0.9-17.7v-46.4c0-0.2,0-0.5-0.1-0.7l-6.2-26.7
	c2.9-5.5,5.2-11.7,7-16.6l9.7-11.4c1.3-1.5,1.8-3.6,1.2-5.6c-0.6-2-2.1-3.6-4.2-4.2l-3.5-1.1c0.2-0.9,0.8-3.3,1.4-5.4
	c3.9-14.6,5.4-22.2,3.2-25.7c-0.8-1.3-3.2-4.6-6.7-6.2c-1-0.4-2.1-0.8-3.5-1.1c-1-0.2-6.7-0.5-12.4-0.8l-11.8-44.5l1.1-17.8
	c0.5-8-1.3-16-5.2-23c-4.7-8.5-12.4-15.2-21.5-18.7l-20.4-8l-7.9-4.8c-21.6-13.2-46.3-20.2-71.6-20.2h-16.5v0c-0.2,0-0.4,0-0.6,0.1
	c-1,0.2-25.5,5.2-62.4,22.4C119.8,78,69.7,134,42.3,166.2c-7.9,9.3-13,20.6-14.9,32.7c-1.1,7-1,14.1,0.3,21.1l8.6,49.2l7.9,100.1
	L8.9,379.7c-0.1,0-0.3,0.1-0.4,0.2c-2.9,1.3-4.7,4.2-4.7,7.4c0,4.5,3.6,8.1,8.1,8.1h22l-26.2,11c-3.4,1.4-5.5,4.7-5.5,8.3
	C2.1,419.7,6.1,423.8,11.1,423.8L11.1,423.8z M268.6,241.3c0-12.3,10-22.4,22.4-22.4c1.5,0,3,0.2,4.4,0.5c-4,15.2-1,30,7.4,40.8
	c-3.5,2.2-7.6,3.4-11.8,3.4C278.7,263.6,268.6,253.6,268.6,241.3z M302,218.9c2.1-6.6,5.4-12.7,9.7-18l28.1,71
	c-4-0.2-8.4-1-13.1-2.5C305.6,262.9,295,241.1,302,218.9L302,218.9z M284.6,393.6c-0.1-0.4,0.1-0.7,0.4-0.9l24.5-5.7l22.8-1.6
	c1.6-0.1,2.9-1.4,2.9-3.1l1.1-104.4c1.8,0.2,3.6,0.3,5.2,0.3c0.1,0,0.3,0,0.4,0l0,19.2l4.8,99.1l-23.3,2.4l-38-4.5
	C285,394.3,284.7,394,284.6,393.6L284.6,393.6z M372.3,331.3c0,5.7-0.3,11.4-0.9,17.1l-5.8,55.7c-0.4,3.4-1.9,6.6-4.3,9l-0.9,0.9
	c-2.8,2.8-6.6,4.4-10.6,4.4h-55.1c-1,0-1.8-0.8-1.8-1.8c0-0.7,0.5-1.4,1.1-1.7l24.5-9.4l31.7-3.3c1.6-0.2,2.9-1.6,2.8-3.2
	l-4.9-101.9v-20.6c0-0.4-0.1-0.8-0.2-1.1l-36.7-92.9c-3.2-8.2-4.4-17.1-3.3-25.8c0.4-3.6,1.9-6.9,4.4-9.6l0.4-0.4
	c5.7-6.3,15.1-7.5,22.2-2.8c3.7,2.5,6.4,6.2,7.4,10.6l30.2,130.7L372.3,331.3L372.3,331.3z M378,186.9c1.3,0.6,2.8,2,3.8,3.7
	c1,2.6-2.6,15.9-3.9,20.9c-1.4,5.2-1.7,6.4-1.6,7.4c0.2,2.6,1.9,4.8,4.4,5.6l3.6,1l-10.1,11.9c-0.2,0.3-0.4,0.6-0.6,1
	c-1,2.8-2.2,6.1-3.6,9.4l-14.4-62.6c10.4,0.4,19.1,0.9,20.2,1C376.7,186.4,377.4,186.6,378,186.9z M358.1,179.1
	c-1.5-0.1-2.9-0.1-4-0.2l-3.1-13.6l0.7-10.7L358.1,179.1z M303.9,72.8c0.2,0.1,0.3,0.2,0.5,0.2l20.7,8.1c7.8,3,14.3,8.7,18.3,16
	c3.3,6,4.9,12.8,4.4,19.6l-1.9,30.4c-1.8-3.3-4.5-6.2-7.7-8.4c-9.7-6.3-22.4-4.7-30.2,3.9l-0.4,0.4c-3.3,3.6-5.4,8.1-5.9,13
	c-0.4,3.7-0.5,7.5-0.3,11.2c-12.6-12.8-39.3-40-47.9-49.8c-3.6-4.1-7.9-7.1-12.1-9.4l10-57.3c15.7,2.9,30.7,8.7,44.4,17L303.9,72.8z
	 M245.2,49.8l-9.7,55.6c-5.3-2.1-10.2-3.1-12.9-3.5l-8.2-53.4h12.9C233.4,48.6,239.3,49,245.2,49.8L245.2,49.8z M33.6,199.9
	c1.6-11,6.3-21.2,13.4-29.6c21.8-25.6,75.4-86.7,103.4-99.7c28.7-13.4,50.1-19.3,57.8-21.3l8.4,54.8l-7.9,13.2
	c-5.3,8.9-13.5,15.9-23.1,19.9c-5,2.1-10.4,3.3-15.8,3.6l-0.5,0c-13.3,0.8-25.9,6.4-35.4,15.7c-37.7,37.2-63.4,61.5-70.5,66.6
	l3.6,5.1c2.2-1.6,5.8-4.6,10.3-8.6l0.3,17.9c-17.2,5.4-35.6-0.2-40.9-2.1L33.8,219C32.7,212.7,32.6,206.2,33.6,199.9L33.6,199.9z
	 M11.8,389.2c-1.1,0-1.9-0.9-1.9-1.9c0-0.7,0.4-1.3,1-1.7l37.5-10.9c1.4-0.4,2.3-1.8,2.2-3.2l-3-38.1l6.2,35.3l-4.5,20.1l-1.1,0.4
	v-0.1H11.8z M10,412.1l43.3-18.2c0.9-0.4,1.6-1.2,1.8-2.2l4.9-22.2c0.1-0.4,0.1-0.8,0-1.2l-22.1-126c5.2,1.6,13.9,3.7,23.8,3.7
	c5.2,0,10.6-0.6,16.1-2.1l2.5,130c0,0.3,0.1,0.7,0.2,1l8.1,22.8c0.5,1.4,0.7,2.9,0.7,4.4l-0.2,4.3c-0.2,6.3-5.4,11.3-11.7,11.3H11.1
	c-1.6,0-2.8-1.3-2.8-2.8C8.3,413.6,8.9,412.6,10,412.1L10,412.1z"/>
</svg>
