<?xml version="1.0" encoding="utf-8"?>
<!-- Generator: Adobe Illustrator 22.1.0, SVG Export Plug-In . SVG Version: 6.00 Build 0)  -->
<svg version="1.1" id="Layer_1_1_" xmlns="http://www.w3.org/2000/svg" xmlns:xlink="http://www.w3.org/1999/xlink" x="0px" y="0px"
	 viewBox="0 0 380 469.7" style="enable-background:new 0 0 380 469.7;" xml:space="preserve">
<style type="text/css">
	.st0{fill:#F26C6D;stroke:#F26C6D;stroke-width:2.8094;stroke-miterlimit:10;}
</style>
<path class="st0" d="M127.6,346.5l-18.7,54.3c-0.1,0.2-0.1,0.4-0.1,0.6l-7,36.9l-53.2,12c-3.2,0.7-5.3,3.5-5.3,6.7
	c0,3.7,3.1,6.8,6.8,6.8h49.9c2.2,2.3,5.2,3.7,8.5,3.7h172.5c12.9,0,25.6-2.6,37.5-7.9l1.5-0.7c8.1-3.6,14.3-10.4,17.1-18.8
	c2.6-8,2.1-16.4-1.7-23.9l-0.8-1.8l-3.5-30.7c-0.9-10.4-1-20.9-0.3-31.3l3.2-44.7c0.8-12.2,0.7-24.5-0.7-36.7l-5.4-48.5l0,0
	c-0.1-0.5-0.2-0.8-0.4-1.3l-45.4-90c-4.1-8.1-8.7-16.1-13.8-23.7l-30-45c-0.4-0.6-0.9-1-1.6-1.3l-99.1-43.9L114.7,3.8
	c-3-1.9-6.7-2.2-10-0.8l-31,12.5c-4.4,1.8-7.2,6-7.2,10.7v0.7c0,5.3,3.7,9.9,8.8,11.2l-10.7,4.1c-4.9,1.9-8.7,6-10.1,11.1
	c-1.6,5.5-0.3,11.4,3.6,15.7l6.2,7.1c1,1.2,1.8,2.6,2.1,4.1l16.6,76.2c1,4.6,2.4,9.2,4.1,13.5l8.1,20.4c3,7.5,7,14.5,12,20.8
	l26.1,33.3l13.4,50.5c-3.4,6.7-6.3,13.6-8.6,20.4L127.6,346.5z M103,445.7c-3.3,1.8-5.6,5-6.2,8.6c-0.1,0.7-0.1,1.4-0.1,2.1H55.5
	L103,445.7z M105.3,458.7c-0.8-0.9-1.1-2.1-0.9-3.3c0.2-1.3,1-2.5,2.2-3.1l12.4-6.2c8.4-4.2,17.9-5.9,27.3-4.9l18.3,2.1
	c0.8,0.1,1.8-0.1,2.5-0.6l16.4-11c2.7-1.8,6.1-2.1,9-0.8l4.4,2.2c-7.1,1.7-12,2.8-12.1,2.8l1.7,7.3c0.6-0.1,56.4-13.1,73-16.9
	c2.2-0.5,4.3-0.8,6.3-1.2c5,11.1,5.3,23.6,1.1,35H108.5C107.1,460.1,106,459.6,105.3,458.7L105.3,458.7z M155.9,370.9l1.9,8.2
	c3.6,15,9.8,29,18.6,41.8l3.1,4.4c-0.1,0.1-0.3,0.1-0.4,0.2l-15.3,10.2l-16.9-1.9c-7-0.7-14.1-0.2-20.9,1.6L155.9,370.9z
	 M329.9,437.9c-2.2,6.4-6.9,11.6-13,14.3l-1.5,0.7c-11,4.8-22.5,7.2-34.5,7.2h-6.4c3.7-11.8,3.3-24.4-1.3-35.9
	c6.8-0.5,10.7,0.2,10.7,0.2l1.5-7.3c-0.4-0.1-10.3-2-27.8,1.9c-9.6,2.2-32,7.3-49.5,11.4l-12.6-6.4c-2.7-1.2-5.7-1.7-8.6-1.4
	l-4.2-6.1c-8.2-11.9-14.1-25.1-17.5-39.1l-3.9-17.1c4.8-5.6,26.1-30.9,39.4-46.7c2.2-2.7,4.4-5.2,6.4-7.9c2.1,6.3,14.8,46,13.1,67.1
	l-0.9,12.1l7.5,0.6l0.9-12.1c0.3-3.4,0.2-7.1-0.1-11.1l28.7,8.5c7.6,2.2,15.4,3.5,23.2,3.8l43.7,2c0.1,2.7,0.3,5.3,0.6,8.1l2.1,18.4
	c-4.3-3.6-9.6-6-15.4-6.8l-49.4-7.3l-1.1,7.4l49.4,7.3c7.7,1.1,14.4,6,17.9,12.9l1.6,3.2C331.5,425.5,332,431.9,329.9,437.9
	L329.9,437.9z M221.8,237.6c-3.4-2.8-6.8-4.5-10.5-5.2l10.5-8.5l1,2.6c2.3,6,7.2,10.6,13.3,12.6c2.3,0.7,4.7,1.2,7.1,1.2
	c3.8,0,7.7-1,11.1-3c9.4-5.5,13.3-17.2,9.2-27.3l-4.6-11.3l2.6-5l12.3,20.3c4.9,8,12.5,13.9,21.4,16.6c3.5,1,7.1,1.6,10.7,1.6
	c5.2,0,10.2-1,15-3.2l4.9,43.3c1.3,11.7,1.6,23.6,0.7,35.4l-2.6,36.4c-5.7,1.7-21.7,5.6-42.2,5.1c-22.2-0.6-49.9-7.4-57.8-9.6
	c-4-18.7-9.7-35.9-10.2-37.1c0-0.1-0.1-0.2-0.1-0.3l-1.5-3.5c10.1-14,16-26,17.8-36.3C231.7,252.8,228.5,243.3,221.8,237.6
	L221.8,237.6z M190.3,238.4L161,200c6-0.6,11.4-3.1,15.3-7c2.8,2,5.7,3.6,8.7,4.7c7.4,2.7,16.5,4.6,25.5,5.1c1,0.1,2.1,0.1,3,0.2
	l5.4,13.6l-22.3,18.1C194.3,235.6,192.3,236.9,190.3,238.4L190.3,238.4z M130.9,42.4l43.6,29c2.2,1.6,4.7,2.9,7.2,4L218,92l6,19.1
	c0.4,1.1,0.7,2.3,1.2,3.6c-6.2-2.7-15.5-6.6-22.4-8.2c-9.6-2.2-22,0.8-29.4,7.4c-11,9.6-18.2,24.3-18.7,37.9c-6,1-11.5,4.5-15.5,9.4
	L108.2,100c-3.4-6.7-5.6-13.9-6.6-21.4l-1.9-14.3l21.8-21.9H130.9z M221.4,202.9c4.2-0.4,8.2-1.3,11.9-3.5c4.8-2.8,9.6-5.9,13.9-9.6
	l9.4,23.1c2.7,6.6,0.1,14.3-6.1,17.9c-3.7,2.2-8.1,2.6-12,1.2c-3.9-1.4-7.2-4.4-8.7-8.3L221.4,202.9z M257.2,185.7l-2,3.8l-2.4-5.9
	c0.7-0.8,1.3-1.8,2.1-2.8L257.2,185.7z M244.8,181.6c-4.1,4.5-9.7,8.1-15.3,11.4c-5,2.9-12,2.8-18.7,2.3c-1.4-0.1-2.7-0.2-4.1-0.4
	c-3.4-12.2-0.6-51.4,2.4-78.8c9.2,3.4,19.1,8.1,19.2,8.1c0.5,0.2,0.9,0.4,1.4,0.4l12,0.7l0.4,7.7c0.1,1,0.6,2.1,1.3,2.7
	c4,3.4,14.5,14.1,14.7,23.8C258.3,163.1,249,176.9,244.8,181.6z M162,154c-0.2-12.2,6.2-25.8,16.2-34.5c4.5-3.9,11.6-6.3,18-6.3
	c1.7,0,3.3,0.2,4.8,0.6c0.3,0.1,0.6,0.1,0.7,0.2c-1.5,13.5-6.4,60-3,79.9c-4-0.7-7.9-1.9-11.3-3.1C174.1,185.7,162.2,168.6,162,154
	L162,154z M155,159.3c1.6,10.5,7.5,21.2,15.5,28.9c-3.3,3.1-8.1,4.8-13.6,4.4c-0.6,0-1.1-0.1-1.7-0.2l-0.3-0.3L143,168.9
	C145.4,164.1,150.1,160.5,155,159.3z M323.3,352.1c-0.4,5.6-0.6,11.3-0.5,17l-43.2-1.9c-7.3-0.3-14.5-1.5-21.4-3.6l-31.7-9.5
	c-0.3-2.2-0.7-4.4-1-6.6c11,2.8,35.3,8.3,56,8.8c1.2,0,2.4,0,3.7,0c17.3,0,31-2.8,38.1-4.7V352.1z M261.9,111.9
	c4.9,7.3,9.4,15,13.3,22.8l43.7,86.7c-6.7,3.3-14.4,3.9-21.6,1.8c-7.2-2.2-13.3-6.8-17.1-13.2l-14.7-24.3l-5.8-12.1
	c3.3-5.2,6-10.6,6-14.1c-0.2-12.8-12.2-24.7-16.2-28.4l-0.5-9.5c-0.1-1.9-1.6-3.5-3.5-3.6l-11.4-0.7c-1.1-3.2-2.2-6-3-8.7L224.6,88
	c-0.3-1-1-1.9-2.1-2.2l-37.6-17.1c-2.2-0.9-4.1-2.2-6.1-3.5l-37.2-24.7c2-1.3,3.6-3.1,4.5-5.3c0.7-1.7,1-3.5,0.9-5.2l85.5,37.9
	L261.9,111.9z M74,26.9v-0.7c0-1.7,1-3.1,2.5-3.7l31-12.5c1.1-0.5,2.3-0.4,3.4,0.3l6.8,4.1c-1.8,0.5-3.6,1.1-5.2,2.2l-2,1.2
	l-2.1-0.5c-1-0.2-2.2,0-3,0.7l-13.4,9.8c-4.3,3.2-9.8,4.3-15,3.1C75.3,30.4,74,28.8,74,26.9L74,26.9z M102.2,187.6L94,167.2
	c-1.6-4-2.9-8.1-3.7-12.4L73.7,78.6c-0.6-2.8-1.9-5.3-3.7-7.5L63.8,64c-2.1-2.4-2.8-5.6-2-8.7c0.8-2.8,2.9-5.1,5.6-6.2l18.3-7
	c0.2-0.1,0.5-0.2,0.7-0.4l30.2-18.9c2.4-1.5,5.4-1.9,8.1-0.9l11.9,4.3c1.2,0.5,2.2,1.3,2.6,2.4c0.5,1.1,0.5,2.4,0,3.6
	c-0.7,1.7-2.3,2.7-4.1,2.7h-15.2c-1,0-2,0.4-2.6,1.1L92.9,60.3c-0.8,0.8-1.2,2-1,3.2L94,79.7c1.1,8.3,3.6,16.3,7.4,23.8l47,92.3
	c0.1,0.2,0.2,0.4,0.4,0.6l0.5,0.6l-22.5,27l-13.7-17.4C108.6,200.8,104.9,194.4,102.2,187.6z M140.4,241.9c-0.1-0.5-0.4-0.9-0.7-1.3
	l-8.2-10.5l22.4-27l30.7,40.2c-4.8,4.6-9.1,9.8-12.7,14.4c-0.8,1-1.6,2-2.3,2.8c-6.7,8.1-12.5,16.5-17.6,25L140.4,241.9z
	 M175.3,265.3c0.7-0.9,1.5-1.9,2.3-2.9c7.1-8.7,17.8-21.9,28.3-22.9c3.8-0.4,7.5,0.9,11.1,3.9c4.7,3.9,6.9,10.8,5.7,17.8
	c-2.2,12.4-11.2,27.9-27.8,47.6c-15.1,17.8-40.4,47.9-40.4,47.9c-0.2,0.3-0.4,0.6-0.6,0.8l-37.8,81.7c-0.2,0.1-0.4,0.2-0.6,0.3
	l-7.3,3.7c0.1-0.3,0.3-0.6,0.3-0.9l7.4-39.1l18.6-54.1l10.5-31C151.2,299.8,161.5,282.1,175.3,265.3L175.3,265.3z"/>
</svg>
