<?xml version="1.0" encoding="utf-8"?>
<!-- Generator: Adobe Illustrator 22.1.0, SVG Export Plug-In . SVG Version: 6.00 Build 0)  -->
<svg version="1.1" id="Layer_1_1_" xmlns="http://www.w3.org/2000/svg" xmlns:xlink="http://www.w3.org/1999/xlink" x="0px" y="0px"
	 viewBox="0 0 371.4 460.8" style="enable-background:new 0 0 371.4 460.8;" xml:space="preserve">
<style type="text/css">
	.st0{fill:#212529;stroke:#212529;stroke-width:3;stroke-miterlimit:10;}
</style>
<path class="st0" d="M330.3,288.4c4.1-4.7,7.7-9.9,10.8-15.3l23.2-40.6c4.5-7.9,6.4-16.9,5.3-26l-0.4-3.7
	c-2.5-22.1-22-38.7-44.2-37.6c-5.9,0.3-11.6,1.7-17,4.4l-17.1,9c-4.6-10.9-10.7-21.1-18.3-30.2c-6.7-8.1-16.1-13.4-26.4-15.1
	l-13.4-2.1c5.4-12.4,8.6-26.2,8.6-39.1c0-20.2-8.1-38.2-20.8-50c0.4-1.7,0.8-3.6,0.8-5.5c0-19.3-15.7-35.1-35.1-35.1
	s-35.1,15.7-35.1,35.1c0,2.1,0.4,3.9,0.9,5.4c-12.7,11.7-20.9,29.8-20.9,50c0,12.8,3.1,26.5,8.5,38.9l-14.5,2.3
	c-10.4,1.6-19.7,7-26.4,15.1c-7.5,9-13.6,19.1-18.2,29.9l-17.3-8.7c-5.3-2.6-11-4.1-16.9-4.3c-22.3-1-41.7,15.5-44.2,37.6l-0.4,3.7
	c-1,9.1,0.8,18.1,5.3,26l23.2,40.6c3.1,5.4,6.7,10.6,10.8,15.3l7.3,8.5l4.3,128.6l-13.6,11.4c-2.9,2.4-4.2,6.2-3.5,9.8
	c0.7,3.7,3.4,6.6,7,7.7l13.9,4.3c1,0.3,2,0.5,3,0.5c0.3,0,0.7,0,1-0.1l32.7-2.8c3.6-0.4,6.6-2.5,8.1-5.8c1.2-2.6,1.3-5.4,0.3-8
	l8.5-0.9c3.3-0.4,5.9-2.6,6.6-5.7c0.5-2,0.1-4.2-1.1-5.9c-1.2-1.7-3-2.9-5.1-3.2L89,423.9l6.4-72.2l26.4,30.9l9.8,19.6
	c0.3,0.5,0.6,1,1.1,1.4l24.5,19.1c2.5,2,5.6,3,8.7,3c1.4,0,2.8-0.2,4.2-0.6c4.4-1.4,7.9-4.8,9.3-9.2l6.2-19.3l6.2,19.3
	c1.4,4.4,4.9,7.9,9.3,9.2c1.4,0.4,2.8,0.6,4.2,0.6c3.1,0,6.2-1,8.7-3l24.5-19.1c0.5-0.4,0.9-0.8,1.1-1.4l9.8-19.6l26.3-30.7
	l6.5,71.9l-21.5,3.1c-2.1,0.3-3.9,1.4-5.1,3.2c-1.2,1.7-1.6,3.9-1.1,5.9c0.7,3,3.4,5.3,6.6,5.7l8.5,0.9c-1,2.6-0.9,5.4,0.3,8
	c1.5,3.3,4.6,5.4,8.2,5.8l32.5,2.8c0.4,0,0.7,0.1,1.1,0.1c1,0,2-0.1,3-0.5l13.9-4.3c3.6-1.1,6.3-4.1,7-7.7s-0.6-7.4-3.5-9.8
	l-13.7-11.6l4.4-128.5L330.3,288.4z M311.6,176.7c4.3-2.1,8.9-3.3,13.7-3.5c18-0.9,33.8,12.6,35.9,30.6l0.4,3.7
	c0.9,7.4-0.6,14.7-4.3,21.1l-3,5.2c-17.3-2.7-34.8-2.5-52,0.5l-11.6,2l24.5-32.3l-6.4-4.8l-9.2,12l-1.3-7.1
	c-1.1-6.1-2.7-12.1-4.7-18L311.6,176.7z M266.4,153.4c12.4,14.9,20.7,32.9,24.1,52.1l2.7,14.2l-31.9,41.9l-9.5-26.5l-8-21.5
	c-3.1-8.5-4.5-17.3-3.9-26.3l3.6-46.4l1.4,0.2C253.4,142.5,261,146.8,266.4,153.4z M238.2,317.5l-51.4-7.5c-0.4-0.1-0.8-0.1-1.1,0
	l-52.6,7.5l-9.2-29.8c-2-6.4-4.8-12.4-8.3-18.1l8.8-24.6c11.5,11.7,42.2,40.5,67.8,40.5c24.6,0,47.3-23.5,56.7-34.8l6.8,18.9
	c-3.5,5.6-6.3,11.7-8.3,18.1L238.2,317.5z M156.3,156.7c8.6,9,18.9,14.8,30,14.8s21.4-5.8,30-14.8v15.9c0,14-9.5,26-23.1,29.2
	c-4.5,1.1-9.2,1.1-13.7,0c-13.6-3.2-23.1-15.2-23.1-29.2L156.3,156.7L156.3,156.7z M186.3,163.5c-21.5,0-41-29.9-45.9-58.3
	c5.1-24.6,24.2-42.4,45.9-42.4c22.3,0,41.1,16.8,46.1,41C228,132.6,208.2,163.5,186.3,163.5z M186.3,9.5c14.9,0,27,12.1,27.1,26.9
	c-8-5.3-17.2-8.3-27.1-8.3s-19.1,3-27.1,8.3C159.3,21.6,171.4,9.5,186.3,9.5L186.3,9.5z M186.3,36.1c23.1,0,42.3,19.9,46.3,46
	c-9.9-16.7-27-27.3-46.3-27.3c-19.4,0-36.7,11.3-46.5,29.2C143.1,56.9,162.7,36.1,186.3,36.1z M148.3,146.7v25.9
	c0,17.7,12,32.9,29.3,37c2.8,0.7,5.8,1,8.7,1s5.9-0.3,8.7-1c17.2-4.1,29.3-19.3,29.3-37v-25.9c1.7-2.6,3.3-5.2,4.8-8l6.5,1
	l-3.6,47.1c-0.6,10.1,0.9,20.1,4.4,29.6l8,21.4l1.5,4c-5.6,7.2-29.3,35.6-53.5,35.6c-24.6,0-57.2-32.9-64.8-40.9l7.5-20.1
	c3.5-9.5,5-19.5,4.4-29.5l-2-47.5l6-0.9C144.9,141.3,146.5,144.1,148.3,146.7L148.3,146.7z M105,153.4c5.4-6.6,13.1-10.9,21.5-12.3
	l3-0.5l2,46.6c0.5,9-0.8,17.9-3.9,26.3l-8,21.5l-9.5,26.5l-31.3-41.2l2.1-15C84.3,186.3,92.6,168.3,105,153.4L105,153.4z M9.7,207.4
	l0.4-3.7c2-17.4,16.9-30.6,34.3-30.6c0.5,0,1,0,1.6,0c4.8,0.2,9.4,1.4,13.7,3.5l18,9.1c-2.1,6-3.7,12.2-4.8,18.5l-1.1,7.3l-9.3-12.4
	l-6.4,4.8l23.3,30.6l-16.5,1c-13.4,0.8-26.8,4.4-38.9,10.3l-9.9-17.3C10.4,222.1,8.9,214.8,9.7,207.4L9.7,207.4z M88,431.8l16.8,2.4
	l-10,1.1c-1.4,0.2-2.7,1.1-3.3,2.4c-0.6,1.3-0.5,2.9,0.3,4.1L94,445c0.6,0.9,0.3,1.8,0.2,2.1c-0.2,0.3-0.6,1.1-1.7,1.2l-32.7,2.8
	c-0.3,0-0.6,0-0.9-0.1L45,446.7c-1.1-0.3-1.4-1.3-1.5-1.7c-0.1-0.4-0.2-1.4,0.7-2.1l13.6-11.4c2-1.6,3-4.1,2.9-6.6l-4-118.5
	l31.4,36.7l-7,80.4C80.9,427.6,83.9,431.2,88,431.8L88,431.8z M178.8,391.8l-6.9,21.6c-0.6,1.9-2.1,3.4-4.1,4s-4,0.2-5.6-1
	l-23.7-18.5l-9.6-19.2c-0.1-0.3-0.3-0.6-0.5-0.8l-81.1-94.7c-3.7-4.4-7.1-9.1-9.9-14.1l-9.3-16.3c11-5.3,23.2-8.5,35.4-9.3l21.8-1.3
	l20.1,26.4c4.9,6.5,8.6,13.6,11,21.4l22.2,71.7c0.2,0.5,0.4,1,0.8,1.5l15,17c0.6,0.7,1.5,1.2,2.5,1.3l17,2.3
	c1.8,0.2,3.4,1.3,4.4,2.8C179.1,388.2,179.4,390.1,178.8,391.8L178.8,391.8z M186.5,382.4c-0.3,0.5-0.5,0.9-0.8,1.4
	c-0.2-0.5-0.5-1-0.8-1.4c-2.2-3.5-5.9-5.9-10.1-6.5l-15.6-2.1l-13.3-15.3l-10.3-33.3l50.7-7.3l49.6,7.2l-10.3,33.4l-13.5,15.2
	l-15.6,2.1C192.4,376.5,188.7,378.8,186.5,382.4L186.5,382.4z M243.1,377.9c-0.2,0.2-0.4,0.5-0.5,0.8l-9.6,19.2l-23.8,18.5
	c-1.6,1.3-3.7,1.6-5.6,1c-2-0.6-3.4-2.1-4.1-4l-6.9-21.6c-0.6-1.7-0.3-3.6,0.7-5.2s2.6-2.6,4.4-2.8l17-2.3c1-0.1,1.8-0.6,2.5-1.3
	l15-17c0.4-0.4,0.7-0.9,0.8-1.5l22.2-71.7c2.4-7.7,6.1-14.9,11-21.4l17.6-23.1l20.1-3.5c15.4-2.7,30.9-2.9,46.4-0.9l-16,27.9
	c-2.9,5-6.2,9.7-9.9,14.1L243.1,377.9z M313.5,431.7l13.6,11.4c0.9,0.8,0.8,1.7,0.7,2.1c-0.1,0.4-0.4,1.3-1.5,1.7l-13.9,4.3
	c-0.3,0.1-0.6,0.1-0.9,0.1l-32.5-2.8c-1.1-0.1-1.6-0.9-1.8-1.2c-0.2-0.3-0.5-1.2,0.2-2.1l2.2-3.3c0.8-1.2,0.9-2.7,0.3-4.1
	c-0.6-1.3-1.9-2.2-3.3-2.4l-10-1.1l16.8-2.4c4.1-0.6,7.1-4.2,6.9-8.5l-7.2-79.8l31.6-36.9l-4,118.4
	C310.5,427.6,311.6,430.1,313.5,431.7L313.5,431.7z"/>
</svg>
