<?xml version="1.0" encoding="utf-8"?>
<!-- Generator: Adobe Illustrator 22.1.0, SVG Export Plug-In . SVG Version: 6.00 Build 0)  -->
<svg version="1.1" id="Layer_1_1_" xmlns="http://www.w3.org/2000/svg" xmlns:xlink="http://www.w3.org/1999/xlink" x="0px" y="0px"
	 viewBox="0 0 405.1 495.2" style="enable-background:new 0 0 405.1 495.2;" xml:space="preserve">
<style type="text/css">
	.st0{fill:#212529;stroke:#212529;stroke-width:3;stroke-miterlimit:10;}
</style>
<path class="st0" d="M25,453.3c5.4,2.6,11.6,5.6,18.5,9.6c8.6,5,27.1,6.1,50.9,5.1c-5.3,2.8-8.2,8.9-6.8,15
	c1.4,6.3,7.1,10.7,13.3,10.7c0.9,0,1.9-0.1,2.9-0.3l64.1-13.9c7.9,0.3,104.3,4,159.7,4c60.1,0,76-34,76-52c0-7.1-5-14.7-14.9-22.5
	c-9.8-7.7-21.3-13.2-34-16.4l-95.2-26.7v-16.4h80.9c5.6,0,10.4-3.8,11.7-9.3l2.1-9c0.6-2.7,0.3-5.5-0.9-8l-61.1-124.4
	c-1.3-3-4-5.1-7.2-5.8l-55.5-10.8V163c16.9-15.8,28.3-44,28.3-68.8c0-20.7-8.3-39.2-21.3-51.2c0.4-1.8,0.8-3.7,0.8-5.7
	c0-19.7-16-35.8-35.8-35.8s-35.8,16.1-35.8,35.8c0,2.2,0.5,4,0.9,5.6c-13,12-21.4,30.5-21.4,51.2c0,24.8,11.4,53,28.3,68.8v19.2
	l-55.4,10.8c-3.2,0.6-5.9,2.8-7.2,5.8L49.7,323.2c-1.2,2.5-1.5,5.3-0.9,8l2.1,9c1.3,5.5,6.1,9.3,11.7,9.3h80.9v16.4L36.4,395.6
	c-0.2,0.1-0.5,0.2-0.7,0.3c-3.5,1.8-34.2,17.6-34.2,33.6C1.5,441.9,11.4,446.7,25,453.3L25,453.3z M83.4,460.4
	c-2.8-3.4-9.9-13-9.9-22.9s4.5-18.8,6.4-22.2l33.4-3.7l103.3,19.1c3.9,0.7,7.9-0.5,10.7-3.3l10.3-10.3c0.9-0.9,2.1-1.3,3.3-1.1
	l28.1,3.5c0.1,0,0.2,0,0.3,0l39.3,1.7c1.6,0.1,2.8,1.4,2.8,3c0,1.3-0.9,2.5-2.2,2.9c-13.2,3.5-58.3,15.2-86.3,18.5
	c-5.7,0.7-13.9,1.8-23.3,3.1C170.2,452.7,119,459.8,83.4,460.4z M167.7,471.5c-0.3,0-0.7,0-1,0.1l-64.6,14c-3,0.7-6-1.3-6.7-4.3
	c-0.6-2.9,1-5.7,3.8-6.6l29-9.2c23.1-2.3,48.3-5.6,72.6-8.9c9.4-1.3,17.6-2.4,23.2-3.1c24-2.8,59.4-11.4,79.4-16.6
	c3.1,2.5,10.6,9.4,10.6,17.4c0,8.6-5.1,17.5-7.4,21.1C248.6,474.7,168.6,471.5,167.7,471.5L167.7,471.5z M284.9,202
	c0,0.1,0.1,0.1,0.1,0.2l61.2,124.5c0.4,0.8,0.5,1.8,0.3,2.7l-2.1,9c-0.4,1.8-2,3.1-3.9,3.1H219.2c-0.4,0-0.7-0.1-1.1-0.3l-12.7-7.9
	v-69.8c2.7,0.2,5,2.2,5.4,5l8,47.9c0.7,3.9,4,6.7,7.9,6.7c0.3,0,0.7,0,1-0.1l59.5-7.4l19.4,3.9l1.6-7.8l-17.9-3.6l-23-53.7
	l-11.2-58.9l27.3,5.3C284.1,200.9,284.6,201.4,284.9,202L284.9,202z M266.4,272.3l15.4,35.9l-18,2.2L266.4,272.3z M173.7,37.3
	c0-15.3,12.5-27.8,27.8-27.8s27.8,12.5,27.8,27.8l0,0c-8.2-5.5-17.7-8.6-27.8-8.6S181.9,31.9,173.7,37.3
	C173.7,37.4,173.7,37.3,173.7,37.3L173.7,37.3z M201.5,36.8c23.8,0,43.7,20.6,47.6,47.7c-10.1-17.4-27.7-28.4-47.6-28.4
	c-20,0-37.8,11.8-47.8,30.3C156.9,58.4,177.1,36.8,201.5,36.8z M154.4,107.6c5.2-25.3,24.9-43.6,47.1-43.6
	c22.9,0,42.3,17.3,47.3,42.1c-4.6,29.6-24.9,61.3-47.3,61.3C179.4,167.5,159.4,136.8,154.4,107.6z M201.5,175.5
	c7.1,0,13.8-2.3,20-6.2v34.2c0,11-9,20-20,20s-20-9-20-20v-34.2C187.7,173.2,194.4,175.5,201.5,175.5z M201.5,231.5
	c15.4,0,28-12.6,28-28v-13.1l18.2,3.5l11.8,61.9l-3.8,55.7l-28.8,3.6l-8-47.9c-1.1-6.8-6.9-11.7-13.8-11.7h-3.6H198
	c-6.9,0-12.7,4.9-13.8,11.7l-8,47.9l-28.8-3.6l-3.8-55.7L155,194l18.5-3.6v13.1C173.5,218.9,186.1,231.5,201.5,231.5L201.5,231.5z
	 M136.6,272.3l2.6,38.1l-18-2.2L136.6,272.3z M58.7,338.4l-2.1-9c-0.2-0.9-0.1-1.8,0.3-2.7l61.2-124.5c0-0.1,0.1-0.1,0.1-0.2
	c0.3-0.6,0.8-1,1.5-1.2l26.9-5.2l-10.9,58.7l-23,53.7l-17.9,3.6l1.6,7.8l19.4-3.9l59.5,7.4c4.3,0.5,8.2-2.4,8.9-6.6l8-47.9
	c0.5-2.8,2.7-4.8,5.4-5v69.8l-12.7,7.9c-0.3,0.2-0.7,0.3-1.1,0.3H62.6C60.7,341.5,59.1,340.2,58.7,338.4L58.7,338.4z M183.8,349.5
	c1.9,0,3.7-0.5,5.3-1.5l12.4-7.8l12.4,7.8c1.6,1,3.4,1.5,5.3,1.5h32.3v16h-100v-16H183.8z M38.9,403.2L146,373.5h110.9l95.6,26.9
	c11.7,2.9,22.2,8,31.1,15c7.6,6,11.9,11.7,11.9,16.2c0,15.2-14.2,44-68,44c-3.7,0-7.6,0-11.7,0c2.8-5.3,6.2-13.2,6.2-21.2
	c0-8.5-5.1-15.5-9.5-19.9c2.9-1.1,5.1-3.4,6.2-6.2c3.7-1.5,10.7-3.8,15.6-3.6l0.3-8c-5.4-0.2-11.9,1.6-16.2,3.2
	c-1.7-3.7-5.2-6.3-9.5-6.4l-39.2-1.7l-28-3.5c-3.7-0.5-7.3,0.8-10,3.4L221.4,422c-0.9,0.9-2.3,1.3-3.6,1.1l-103.9-19.2
	c-0.4-0.1-0.8-0.1-1.2,0l-54,6l0.9,8l10.5-1.2c-0.2,0.4-0.4,0.9-0.6,1.4c-2,4.7-4.3,11.9-4.3,19.8c0,9,4.3,17.3,7.9,22.9
	c-11.9-0.3-21.2-1.5-25.9-4.3c-7.1-4.2-13.4-7.2-19-9.9c-13.5-6.6-19-9.5-19-16.6C9.5,421.6,26.6,409.5,38.9,403.2L38.9,403.2z"/>
</svg>
