<?xml version="1.0" encoding="utf-8"?>
<!-- Generator: Adobe Illustrator 22.1.0, SVG Export Plug-In . SVG Version: 6.00 Build 0)  -->
<svg version="1.1" id="Layer_1_1_" xmlns="http://www.w3.org/2000/svg" xmlns:xlink="http://www.w3.org/1999/xlink" x="0px" y="0px"
	 viewBox="0 0 380 469.7" style="enable-background:new 0 0 380 469.7;" xml:space="preserve">
<style type="text/css">
	.st0{fill:#F56C6D;stroke:#F56C6D;stroke-width:3;stroke-miterlimit:10;}
</style>
<path class="st0" d="M598.4,131.5c5.1,2.5,10.9,5.3,17.3,9c8,4.7,25.5,5.7,47.7,4.8c-5,2.7-7.7,8.3-6.4,14c1.3,5.9,6.6,10,12.5,10
	c0.9,0,1.8-0.1,2.7-0.3l60.1-13c7.4,0.3,97.8,3.7,149.7,3.7c56.4,0,71.3-31.9,71.3-48.8c0-6.7-4.7-13.8-14-21.1
	c-9.2-7.2-20-12.4-31.9-15.4l-89.2-25.1V34.1h75.9c5.3,0,9.8-3.6,11-8.7l2-8.5c0.6-2.5,0.3-5.2-0.9-7.5L849-107.3
	c-1.2-2.8-3.8-4.8-6.8-5.4l-52-10.1v-18c15.9-14.8,26.5-41.3,26.5-64.5c0-19.4-7.8-36.7-20-48c0.4-1.6,0.8-3.4,0.8-5.3
	c0-18.5-15.1-33.6-33.6-33.6s-33.6,15.1-33.6,33.6c0,2,0.4,3.7,0.9,5.3c-12.2,11.2-20.1,28.6-20.1,48.1c0,23.2,10.7,49.7,26.5,64.5
	v18l-52,10.1c-3,0.6-5.5,2.6-6.8,5.4L621.6,9.4c-1.1,2.3-1.4,5-0.9,7.5l2,8.5c1.2,5.1,5.7,8.7,11,8.7h75.9v15.4L609.1,77.4
	c-0.2,0.1-0.5,0.2-0.7,0.3c-3.3,1.6-32.1,16.5-32.1,31.5C576.4,120.8,585.6,125.3,598.4,131.5L598.4,131.5z M653.2,138.1
	c-2.6-3.2-9.3-12.2-9.3-21.4c0-9.3,4.2-17.7,6-20.9l31.4-3.5l96.9,17.9c3.6,0.7,7.4-0.5,10-3.1l9.6-9.6c0.8-0.8,2-1.2,3.1-1.1
	l26.4,3.3c0.1,0,0.2,0,0.3,0l36.9,1.6c1.5,0.1,2.7,1.3,2.7,2.8c0,1.3-0.8,2.4-2.1,2.7c-12.4,3.3-54.7,14.3-80.9,17.4
	c-5.3,0.6-13,1.7-21.9,2.9C734.6,130.9,686.6,137.5,653.2,138.1z M732.2,148.5c-0.3,0-0.6,0-0.9,0.1l-60.6,13.1
	c-2.8,0.6-5.7-1.2-6.3-4c-0.6-2.7,0.9-5.4,3.6-6.2l27.2-8.6c21.6-2.1,45.3-5.2,68.1-8.4c8.8-1.2,16.5-2.3,21.7-2.9
	c22.5-2.7,55.7-10.7,74.5-15.6c2.9,2.4,10,8.8,10,16.3c0,8-4.8,16.4-6.9,19.8C808.1,151.5,733.1,148.6,732.2,148.5L732.2,148.5z
	 M842.1-104.2c0,0.1,0.1,0.1,0.1,0.2l57.4,116.8c0.4,0.8,0.5,1.7,0.3,2.5l-2,8.5c-0.4,1.7-1.9,2.9-3.7,2.9H780.6
	c-0.4,0-0.7-0.1-1-0.3l-11.9-7.4v-65.4c2.6,0.2,4.7,2.1,5.1,4.7L780.3,3c0.6,3.7,3.8,6.3,7.4,6.3c0.3,0,0.6,0,0.9-0.1l55.8-7
	l18.2,3.6l1.5-7.4l-16.8-3.4l-21.6-50.3l-10.5-55.1l25.6,5C841.4-105.2,841.9-104.8,842.1-104.2L842.1-104.2z M824.8-38.3l14.4,33.6
	l-16.9,2.1L824.8-38.3z M737.8-258.7c0-14.4,11.7-26.1,26.1-26.1s26.1,11.7,26.1,26.1c0,0,0,0,0,0c-7.7-5.1-16.6-8.1-26.1-8.1
	S745.6-263.7,737.8-258.7C737.9-258.6,737.8-258.6,737.8-258.7L737.8-258.7z M764-259.2c22.4,0,41,19.4,44.6,44.7
	c-9.5-16.3-26-26.6-44.6-26.6c-18.8,0-35.4,11-44.9,28.4C722.1-238.9,741.1-259.2,764-259.2z M719.8-192.7
	c4.9-23.7,23.3-40.9,44.2-40.9c21.5,0,39.6,16.2,44.4,39.5c-4.3,27.8-23.3,57.5-44.4,57.5C743.2-136.6,724.5-165.3,719.8-192.7z
	 M764-129.1c6.6,0,12.9-2.1,18.8-5.9v32.1c0,10.3-8.4,18.8-18.8,18.8s-18.8-8.4-18.8-18.8v-32.1C751-131.2,757.3-129.1,764-129.1z
	 M764-76.6c14.5,0,26.3-11.8,26.3-26.3v-12.3l17.1,3.3l11.1,58l-3.6,52.2l-27.1,3.4l-7.5-44.9c-1.1-6.4-6.5-11-13-11H764h-3.3
	c-6.4,0-11.9,4.6-13,11l-7.5,44.9l-27.1-3.4l-3.6-52.3l10.7-57.9l17.4-3.4v12.3C737.7-88.3,749.5-76.6,764-76.6L764-76.6z
	 M703.1-38.3l2.4,35.7l-16.9-2.1L703.1-38.3z M630,23.7l-2-8.5c-0.2-0.8-0.1-1.7,0.3-2.5L685.7-104c0-0.1,0.1-0.1,0.1-0.2
	c0.2-0.6,0.8-1,1.4-1.1l25.3-4.9l-10.2,55.1L680.6-4.8l-16.8,3.4l1.5,7.4l18.2-3.6l55.8,7c4,0.5,7.7-2.2,8.3-6.2l7.5-44.9
	c0.4-2.6,2.5-4.5,5.1-4.7v65.4l-11.9,7.4c-0.3,0.2-0.6,0.3-1,0.3H633.6C631.9,26.6,630.4,25.4,630,23.7L630,23.7z M747.3,34.1
	c1.8,0,3.5-0.5,5-1.4l11.6-7.3l11.6,7.3c1.5,0.9,3.2,1.4,5,1.4h30.3v15h-93.8v-15H747.3z M611.5,84.5l100.4-27.9h104l89.6,25.2
	c11,2.8,20.8,7.5,29.2,14c7.2,5.6,11.1,11,11.1,15.2c0,14.3-13.3,41.3-63.8,41.3c-3.5,0-7.1,0-10.9,0c2.7-4.9,5.8-12.3,5.8-19.9
	c0-8-4.8-14.5-8.9-18.7c2.7-1.1,4.8-3.2,5.8-5.9c3.5-1.4,10-3.6,14.6-3.4l0.3-7.5c-5.1-0.2-11.1,1.5-15.2,3c-1.5-3.4-4.9-5.9-8.9-6
	L828,92.3L801.8,89c-3.5-0.4-6.9,0.7-9.4,3.2l-9.6,9.6c-0.9,0.9-2.1,1.3-3.3,1l-97.4-18c-0.4-0.1-0.7-0.1-1.1,0l-50.6,5.6l0.8,7.5
	l9.8-1.1c-0.2,0.4-0.4,0.8-0.6,1.3c-1.8,4.4-4,11.2-4,18.6c0,8.4,4,16.2,7.4,21.4c-11.2-0.3-19.9-1.5-24.3-4
	c-6.7-3.9-12.6-6.8-17.8-9.3c-12.7-6.1-17.8-8.9-17.8-15.6C583.9,101.8,599.9,90.4,611.5,84.5L611.5,84.5z"/>
<path class="st0" d="M238.1,417.4c18.6,12.4,41.3,15.9,52.5,15.9c1.5,0,2.8-0.1,3.9-0.2c11.2-1.2,28.5-10.7,40.7-33.1
	c14.8-27.3,0.8-77.6-3.8-92.4c-8-25.4-46.6-90-48.2-92.8c0-0.1-0.1-0.2-0.1-0.2l-33.9-48.5c-14-20-34.8-34.4-58.4-40.4
	c-6.2-1.6-12.5-1.9-18.7-1.2l-23.1-11.8c7.9-11.1,12.8-25.6,15.7-37.7c1-4.1,1.3-8.5,1.2-13c8.4-1.4,16.4-7.3,21.3-16
	c3.9-6.9,4.9-14.9,2.8-22.5c-2.1-7.6-7.1-14-14-17.9c-12.1-6.8-27.6-3.6-36.8,7.2c-14.4-8.8-34.6-11.3-52.2-6.1
	c-11.7,3.4-23.2,14.2-27.5,25.7c-4.6,12.3-10.3,35-11.2,38.6l-9.4,17.2C38.2,89,38.1,90,38.4,91s0.9,1.8,1.8,2.3l11.6,6.3
	c-0.3,6.8-0.3,22.6,6.3,28.7c8.3,7.7,20.9,9.7,32,9.7c4.1,0,8-0.3,11.4-0.7l27.6,26.2c-0.4,1.8-0.7,3.7-0.9,5.6
	c-6.3,6.5-11.4,14.1-14.9,22.6l-7,17.1c0,0.1-0.1,0.2-0.1,0.3l-2.9,9.5c0.2-1.7,0.2-3.4-0.1-5.1l-3.1-19c-0.7-4.6-4.7-7.9-9.3-7.9
	h-5.6V172c0-2.7-1.1-5.3-3.1-7l-11.4-10.2c-2-1.8-4.6-2.6-7.2-2.4c-2.6,0.3-5.1,1.6-6.6,3.8l-12.2,16.4c-1.2,1.6-1.9,3.6-1.9,5.6
	v42.5c0,4.2,1,8.3,2.8,12.1l10.3,20.8c-0.9,9.1-5.3,54.4-0.6,66.6c15,39,21.4,41.7,23.8,42.7c1,0.4,2.2,0.7,3.4,0.7
	c2.5,0,5.5-0.9,9.1-2.7c9.9-4.9,17.6-13.6,21.6-24.4l6.2-16.5l37.3,70.1l-49.4,18.7c-4.9,1.8-8.1,6.6-8.1,11.7
	c0,3.4,1.3,6.6,3.7,8.9c2.4,2.3,5.5,3.6,8.8,3.6c0.1,0,0.1,0,0.2,0l27.6-0.4l-32.8,12.9c-4.4,1.7-7.3,5.9-7.3,10.6
	c0,3.2,1.3,6.1,3.5,8.3c2.2,2.1,4.9,3.2,7.9,3.2c0.2,0,0.4,0,0.5,0l108.5-4.9c7.7-0.3,14.4-4.9,17.6-11.9c3.2-7.2,2-15.7-3.2-21.6
	l-11.1-12.8c-0.4-0.5-0.8-1-1.2-1.5c1.1-3.2,1.6-7.6,1.8-11.7C228.5,409.2,233.4,414.3,238.1,417.4L238.1,417.4z M328.5,396.4
	c-11.5,21.3-27.4,28.4-34.9,29.2c-6.8,0.7-31.5-1.3-51.3-14.5c-18.8-12.5-44.8-63.3-45-63.8c-0.1-0.2-0.2-0.3-0.3-0.5l-44-60.7
	l-6.1,4.4l11.6,16l-42.1-8.1l-2.5-4.7c-5.9-11.1-9.5-23.1-10.6-35.6c-0.6-7.1,1.5-14,6-19.4c5.5-6.7,13.9-10.3,22.5-9.8l5.8,0.4
	c5,0.3,9.9,2.1,13.9,5c20.2,14.6,69.1,50.4,87.8,69.1c12.5,12.5,25.4,32.6,34,47.3l6.5-3.8c-7.3-12.4-17.6-28.7-28.4-41.3h71.1
	c0.6,1.5,1.1,2.9,1.5,4.2C328.5,323.9,341.9,371.7,328.5,396.4L328.5,396.4z M244.7,298.1c-0.4-0.4-0.7-0.7-1.1-1.1
	c27.4-7,51.7-23.3,60.6-29.7c5.8,10.9,11.4,21.8,15.4,30.8L244.7,298.1L244.7,298.1z M188.8,133c21.9,5.6,41.1,18.9,54.1,37.4
	l33.8,48.4c1,1.7,12.3,20.7,23.8,41.7c-8.2,6-35.1,24.2-63.7,30.3c-19.8-17.6-53.7-42.8-73.7-57.4l26.6-18.9
	c7.9-5.6,13.1-14.4,14.3-24l0.4-3.2c1.3-10.3-2.2-20.6-9.4-28.1c-8.7-9.1-21.6-12.7-33.8-9.5c-8.5,2.3-16.5,6.1-23.5,11.2
	c2.9-8.8,8.6-16.4,16.4-21.7C164.2,132.2,176.9,129.9,188.8,133L188.8,133z M172,12.1c5.1,2.9,8.8,7.6,10.4,13.3s0.9,11.6-2.1,16.8
	c-3.7,6.6-9.5,11-15.5,12.2c-2.4-14.1-9.6-28.2-19.8-37.1C152,9.5,163.3,7.1,172,12.1L172,12.1z M88.9,13.9
	c16.2-4.8,34.9-2.3,47.6,6.3c15.2,10.3,24.9,35.1,20.6,53c-1.4,6-3.3,12.5-5.8,18.8c-28-38-72.1-51.3-85.8-54.6
	c0.3-0.9,0.6-1.7,0.9-2.4C69.8,25.8,79.7,16.6,88.9,13.9z M63.2,122.7c-3.7-3.4-4.4-16.7-3.8-25c0.1-1.5-0.6-2.9-2-3.6l-10.4-5.7
	L55,74.1c0.2-0.3,0.3-0.6,0.4-0.9c0.1-0.2,3.9-15.8,7.9-28.7c12.3,3,58,16.6,84.5,55.4c-4.5,8.7-10.3,16.3-18,20.2
	c-7.3,3.7-15.1,7.3-22.7,8.6C99.7,130.1,74.9,133.5,63.2,122.7L63.2,122.7z M110.9,135.7c7.7-1.8,15.2-5.2,22.2-8.8
	c4-2.1,7.6-4.9,10.8-8.3l16.8,8.6c-3.8,1.4-7.5,3.3-10.9,5.6c-8.3,5.7-14.5,13.5-18.2,22.5L110.9,135.7z M113.3,211.4l7-16.9
	c7.6-18.4,23.6-32.4,42.8-37.5c9.5-2.5,19.6,0.3,26.4,7.4c5.6,5.9,8.3,13.9,7.3,22l-0.4,3.2c-0.9,7.5-5,14.4-11.2,18.8l-28.7,20.4
	c-0.2-0.1-0.4-0.3-0.6-0.5c-5.2-3.8-11.4-6-17.9-6.4l-5.8-0.4c-9-0.6-17.8,2.4-24.6,8.1L113.3,211.4z M100.5,226.1
	c0.3-0.5,0.6-1,0.8-1.5l-11.9,38.8l-1.3-9.9L100.5,226.1z M106,333.8c-3.4,9-9.7,16.2-17.9,20.3c-4.6,2.3-6.1,1.8-6.1,1.8
	c-0.6-0.3-6.2-3.5-19.7-38.5c-3.2-8.4-1.1-42.9,1.2-64.1c0.1-0.7-0.1-1.4-0.4-2.1l-10.8-21.8c-1.3-2.7-2-5.7-2-8.7v-42.5
	c0-0.4,0.1-0.8,0.4-1.1l12.2-16.4c0.4-0.6,1-0.7,1.3-0.8c0.3,0,0.9,0,1.4,0.5L77,170.6c0.4,0.4,0.6,0.9,0.6,1.4v18.3
	c0,2.1,1.7,3.8,3.8,3.8h9.3c0.9,0,1.7,0.7,1.9,1.6l3.1,19c0.4,2.6-0.2,5.3-1.6,7.6c-0.1,0.2-0.2,0.3-0.3,0.5l-12.9,28.6
	c-0.3,0.6-0.4,1.4-0.3,2.1l3.6,27.1l-11.9,28.2l7,2.9l12.3-29.1c0-0.1,0.1-0.2,0.1-0.4l5-16.3c1.7,11,5.3,21.6,10.5,31.6l7.3,13.8
	L106,333.8z M111.7,425.6C111.7,425.6,111.6,425.6,111.7,425.6c-1.4,0-2.6-0.5-3.6-1.4c-1-0.9-1.5-2.2-1.5-3.6
	c0-2.1,1.3-3.9,3.2-4.7l50.3-19l9.2,17.3c0.8,1.4,0.9,3.1,0.3,4.6c-0.6,1.5-1.7,2.7-3.2,3.3l-7.1,2.8L111.7,425.6z M228.5,434.2
	c3.3,3.7,4,9.1,2,13.6c-2,4.4-6.2,7.3-11,7.5L111,460.2c-1.1,0.1-2.1-0.3-2.9-1.1c-0.8-0.7-1.2-1.7-1.2-2.8c0-1.6,1-3,2.5-3.6
	l59.8-23.5c3.5-1.4,6.3-4.2,7.6-7.7c1.3-3.5,1-7.5-0.7-10.8L120.9,307l44,8.4l25.5,35.2l15.4,50c2.4,7.7,6.3,14.7,11.6,20.8
	L228.5,434.2z M215.9,405.7c-1.1-2.3-2.1-4.7-2.9-7.3l-5.5-18c2.7,4.3,5.6,8.7,8.6,12.9C216.3,397.5,216.2,402,215.9,405.7z"/>
</svg>
