<?xml version="1.0" encoding="utf-8"?>
<!-- Generator: Adobe Illustrator 22.1.0, SVG Export Plug-In . SVG Version: 6.00 Build 0)  -->
<svg version="1.1" id="Layer_1_1_" xmlns="http://www.w3.org/2000/svg" xmlns:xlink="http://www.w3.org/1999/xlink" x="0px" y="0px"
	 viewBox="0 0 380 469.7" style="enable-background:new 0 0 380 469.7;" xml:space="preserve">
<style type="text/css">
	.st0{fill:#F56C6D;stroke:#F56C6D;stroke-width:2.9684;stroke-miterlimit:10;}
</style>
<path class="st0" d="M375.6,280c2-4.4,2.9-9.4,2.6-14.3l-0.5-8.8c-0.5-8.4-4.9-16.1-11.9-20.7c-6.8-4.5-15.2-6.1-23.2-4.4
	c-0.7,0.1-1.4,0.3-2.3,0.5c-28.5,6.4-55.7,17.6-81,33.1l-9.5,5.8l-2.3-46c-0.5-8.3-3-16.5-7.4-23.6L228,181.3
	c-2.4-4-4.2-8.3-5.3-12.9c-4.1-17.3-17.2-31.4-34.1-36.8l-31.5-10c-5.1-1.6-10.5-2.1-15.8-1.6c-16.4-15.9-34.8-33.2-38.1-35.7
	C102.7,84,56.9,50,48.4,50H33.9c-5.7,0-10.7,3.8-12.3,9.2C18.4,70,13.1,90,13.1,102.9c0,16-1.3,52.4-1.6,58.3l-5.5,9.1
	c-2.8,4.6-3.8,10.1-2.9,15.5l2.4,13.5c0.9,5,3.4,9.5,7.2,12.9l2.9,2.6c2.2,1.9,4.9,2.9,7.7,2.9c0.3,0,0.6,0,0.9,0
	c0.6,0,1.1-0.1,1.6-0.3v175.9c0,10.5,2.5,21.1,7.2,30.5c4.2,8.4,12.7,13.6,22.1,13.6H57c7.4,0,14.6-1.2,21.7-3.6
	c2.6-1,64.4-25,78-33.3l58-35.5l37-13.1c19-6.8,36.1-18.3,49.5-33.4l7.7-8.7c-8.3,28.7-12.8,72.8-13.4,78.7l-17.5,38
	c-1.2,2.6-1.6,5.4-1.3,8.2c0.9,7.9,7.5,13.8,15.5,13.8h77.1c4.4,0,7.9-3.5,7.9-7.9c0-3.3-2.1-6.3-5.1-7.4
	c-21.7-8-46.4-21.7-44.5-33.9C329.4,385.8,353.6,328.8,375.6,280L375.6,280z M182,259.8c-0.1-0.9-0.2-1.8-0.4-2.7l-1-5.6
	c-0.4-2.5-1-5-1.6-7.4c7.5-2,25.9-6.9,31.6-8.6c5.7-1.7,22.5-10.4,30.1-14.4c0.2,1.4,0.4,2.9,0.5,4.3l1.5,31.3l-10.7-3.4
	c-13.2-4.2-27.5-3.4-40.1,2.3L182,259.8z M32.4,213.5c2.1-2.5,3.1-5.9,2.6-9.1l-1.1-8l0.3,0.4c1.5,1.8,3.9,2.6,6.2,2.3
	c0.3,0,0.6-0.1,0.8-0.2l2.7,10.4c2.1,7.9,5.7,15.1,10.7,21.6l8.9,11.3c0.1,0.1,0.1,0.1,0.2,0.2c2.4,2.5,2.3,6.5-0.1,8.9l-8.3,8.3
	c-1.4,1.4-2.1,3.5-1.8,5.6l13.7,71.7c0.1,0.7,0.2,1.4,0.3,2.1c0.2,2,0.2,4.3,0,7.1l-1.4,22.1l-33.7,15.3L32.4,213.5
	C32.4,213.5,32.4,213.5,32.4,213.5L32.4,213.5z M73.8,338.4c-0.1-0.8-0.2-1.6-0.3-2.6l-13.7-71.7l8.3-8.3c4.9-4.9,5-12.6,0.4-17.7
	l-8.8-11.2c-4.5-5.7-7.7-12.2-9.5-19.2l-3.7-14.4c0.2-1,0.2-2-0.1-3l-0.6-2.3c4.1,3.2,8.5,5.7,13.1,7.3
	c-2.2,11.5,3.6,23.1,14.3,27.4c3,1.2,6.1,1.8,9.2,1.8c3.2,0,6.5-0.7,9.5-2c6-2.6,10.7-7.3,13.1-13.3c3.1-7.6,2.8-15.7-0.6-21.9
	c3-2.2,5.6-4.7,7.7-7.4c0-0.1,0.1-0.1,0.1-0.2c3,5.1,7.2,9.6,12.3,12.9l22.2,14.3c2.5,1.6,4.8,3.5,6.9,5.6
	c10.9,10.9,18.1,24.8,20.8,40l1,5.6c0.7,4.1,0.6,8.3-0.5,12.4c-0.5,2.1-1.3,4.2-2.3,6.1c-5.8,2.7-14.3,8-24,17.6
	c-6.4,6.4-11.1,14.9-14.1,25.3c-3.4,11.9-10.8,22.2-21.1,28.9L72,375.9l1.8-29.4C74,343.3,74,340.8,73.8,338.4L73.8,338.4z
	 M107.5,153.3l-0.3,2.6c0,0.2,0,0.3,0,0.5c-32.7-1.9-59-20.3-66.4-26C47,121.2,55,110.8,55,110.6c0.1-0.2,0.2-0.3,0.3-0.5l3.3-6.4
	l49.9,44.6C108.1,150,107.7,151.6,107.5,153.3L107.5,153.3z M49.8,107c-0.8,1.1-4.1,5.4-7.9,10.6c0.9-3.4,1.9-6.3,2.9-8.4
	c2.2-4.4,4.6-8.3,6.9-11.6l2,1.8L49.8,107z M38.2,136.5c9.5,7.2,35.7,24.4,68.7,26.2c0.2,3.6,0.9,7.2,2.1,10.5
	c-0.7,1-1.4,1.9-2.1,2.8c-9.3,11.9-30.1,18.4-44.5,13.9c-7.2-2.3-14.3-7.1-19.9-13.7l-2.3-8.5c-0.1-0.2-0.1-0.4-0.2-0.6l-4.4-8.8
	C35.9,155.5,36.8,146.4,38.2,136.5z M98.9,206.9c-1.8,4.5-5.2,8-9.7,9.8c-4.4,1.9-9.3,1.9-13.8,0.1c-7.6-3.1-11.8-11.4-10.5-19.8
	c2.5,0.4,5,0.7,7.6,0.7c8.9,0,18.3-2.5,26.3-6.9C101.1,195.3,101.2,201.2,98.9,206.9L98.9,206.9z M155.1,127.7l31.5,10
	c14.8,4.7,26.3,17.1,29.9,32.2c1.2,5.2,3.3,10.2,6.1,14.7l12.3,20.2c1.9,3.1,3.4,6.4,4.5,9.9c-8.5,4.5-25.4,13.2-30.5,14.7
	c-5.6,1.7-24.4,6.7-31.7,8.6c-4-11.2-10.4-21.4-19-29.9c-2.4-2.4-5.1-4.6-8-6.4l-22.2-14.3c-10.2-6.6-15.9-18.6-14.4-30.7l0.3-2.6
	c0-0.2,0.1-0.3,0.1-0.5l17.9,19c5.1,5.4,12.8,7.8,20.1,6.1l1.8-0.4c6.6-1.5,12.1-6.2,14.8-12.5c3.2-7.7,1.6-16.6-4.1-22.6
	c-3.7-3.9-9.8-10-16.8-16.9C150.2,126.5,152.7,126.9,155.1,127.7L155.1,127.7z M23.8,211.3c-1.4,0.1-2.8-0.4-3.9-1.3l-2.9-2.6
	c-2.7-2.4-4.5-5.7-5.1-9.2l-2.4-13.5c-0.7-3.8,0.1-7.7,2-11.1l5.9-9.8c0.3-0.5,0.4-1,0.5-1.5c0-0.4,1.6-41.9,1.6-59.4
	c0-12.1,5.1-31.4,8.2-41.8c0.8-2.7,3.3-4.6,6.1-4.6l14.4,0c5.2,0.5,38.5,23.6,51,33c4.5,3.4,47.1,43.9,60.5,58.1
	c4,4.2,5.1,10.4,2.9,15.8c-1.8,4.4-5.7,7.6-10.3,8.7l-1.8,0.4c-5.1,1.2-10.4-0.5-14-4.2l-20.2-21.4c-0.1-0.1-0.1-0.1-0.2-0.2
	L55.5,92.4c2.2-2.8,3.7-4.5,3.8-4.5l-4.7-4.4c-0.4,0.4-8.9,9.7-15.5,22.8c-6.6,13.2-9.8,50.8-9.9,52.4c0,0.6,0.1,1.2,0.3,1.7
	l4.7,9.3l5.9,22.3c0,0.1,0,0.3,0,0.4c-0.1,0.2-0.3,0.3-0.5,0.3c-0.2,0-0.4,0-0.6-0.2l-7.4-8.5c-0.9-1.1-2.5-1.4-3.7-0.8
	c-1.3,0.6-2,2-1.8,3.4l2.7,18.7c0.2,1.5-0.2,3-1.2,4.1C26.6,210.5,25.3,211.2,23.8,211.3L23.8,211.3z M296.4,314.4
	c-12.6,14.3-28.8,25.2-46.8,31.6l-37.3,13.3c-0.2,0.1-0.4,0.2-0.6,0.3l-58.2,35.7c-13,8-76.3,32.6-76.8,32.8
	c-6.3,2.1-12.9,3.2-19.6,3.2h-1.8c-7,0-13.2-3.9-16.4-10.1c-4.3-8.5-6.5-18.1-6.5-27.7v-2.9l33.2-15.1l-0.3,4.9L53,388.4l3.5,5.3
	l60.5-39.9c11.5-7.6,19.9-19.1,23.7-32.5c2.6-9.3,6.8-16.9,12.4-22.5c3.9-3.9,7.6-7,11-9.5l-3.9,5.5c-0.4,0.6-0.8,1.3-1.3,2
	c-5,8.9-5.9,19.8-2.3,29.8l0.8,2.2l6-2.1l-0.8-2.2c-2.9-8.3-2.2-17.2,1.9-24.6c0.3-0.6,0.6-1.1,0.9-1.5l10-14.2
	c2.6-3.7,4.5-7.8,5.6-12.1c0.4-1.8,0.8-3.6,0.9-5.4l12.5-5.3c11.2-5,23.8-5.8,35.6-2l13,4.1l0.6,11.4L218,290.7l3.4,5.5l41.3-25.4
	c24.6-15.1,51.2-26,79-32.3c0.8-0.2,1.5-0.3,2.2-0.5c6.3-1.3,13-0.1,18.3,3.5c5.3,3.5,8.7,9.4,9.1,15.8l0.5,8.8
	c0.2,3.8-0.5,7.7-2.1,11.2c-1.4,3-3.1,6.9-5.2,11.5l-44.7,9c1.1-2.3,2.2-4.2,3.4-5.5c14.1-15.7,19.1-20.6,19.1-20.7l-4.5-4.5
	c-0.2,0.2-5,5-19.3,20.9c-1.2,1.3-2.3,3-3.4,5L296.4,314.4z M369.6,439.5c0.6,0.2,1,0.8,1,1.4c0,0.8-0.7,1.5-1.5,1.5H292
	c-4.7,0-8.6-3.5-9.1-8.1c-0.2-1.7,0.1-3.3,0.8-4.8l17.8-38.5c0.2-0.3,0.2-0.7,0.3-1c1.8-18.3,7.4-61.9,15.3-84.9l44.4-8.9
	c-14.6,33-38.2,87.9-40.4,102.6C318,418.2,354,433.7,369.6,439.5L369.6,439.5z"/>
</svg>
